<?xml version="1.0" encoding="UTF-8"?>
<svg version="1.1" xmlns="http://www.w3.org/2000/svg" width="1000" height="1080">
<path d="M0 0 C330 0 660 0 1000 0 C1000 356.4 1000 712.8 1000 1080 C670 1080 340 1080 0 1080 C0 723.6 0 367.2 0 0 Z " fill="#FEFBF8" transform="translate(0,0)"/>
<path d="M0 0 C63.17569665 26.61872622 119.38127378 82.82430335 146 146 C171.78145171 211.18648546 172.01415007 294.25917741 144.71979332 359.03838539 C117.02424713 421.47304698 60.72291735 477.98390295 -3.07085609 503.21453285 C-68.66055025 527.75181393 -151.63914375 527.95603501 -216.04951477 499.38407898 C-277.93757608 470.68544784 -334.30296795 414.17319656 -358.37324524 349.83183289 C-381.82689249 283.83361409 -381.71045504 201.03578543 -351.99902296 136.96363783 C-301.66723629 32.82909227 -198.41136201 -23.48795672 0 0 Z " fill="#FEFBF7" transform="translate(605,249)"/>
<path d="M0 0 C330 0 660 0 1000 0 C1000 26.4 1000 52.8 1000 80 C670 80 340 80 0 80 C0 53.6 0 27.2 0 0 Z " fill="#000000" transform="translate(0,1000)"/>
<path d="M0 0 C94.16829019 0 94.16829019 0 115.05659795 19.87177706 C116.98661746 21.67291795 118.96879135 23.39155208 120.98046684 25.10084152 C130.44403224 33.14535641 139.31244696 41.65210394 147.99803925 50.52596283 C150.07491126 52.63761913 152.17021425 54.72928848 154.2711792 56.81695557 C200.36810349 102.76967522 224.60380423 150.25014363 224.99772644 216.07494926 C225.04975592 283.01353902 203.53211942 331.80575199 156.3873657 379.07347798 C154.97915002 380.47728836 153.5698113 381.87997309 152.1593399 383.28151703 C150.07477365 385.362746 148.00996062 387.46185739 145.94952393 389.56695557 C137.29243703 398.37900944 128.32154328 406.6615598 118.90896297 414.65928316 C116.97902565 416.33851449 115.11809286 418.06972068 113.26481819 419.83280563 C80.81976804 449.75176172 44.376659 438 0 438 C0 293.46 0 148.92 0 0 Z " fill="#59514A" transform="translate(510,281)"/>
<path d="M0 0 C0 20.79 0 41.58 0 63 C-6.93 63 -13.86 63 -21 63 C-21 165.96 -21 268.92 -21 375 C-14.07 375 -7.14 375 0 375 C0 395.79 0 416.58 0 438 C-23.0832797 440.24948722 -38.74910696 441.68346992 -57.02734375 426.875 C-62.21191856 422.54195688 -67.06900057 417.92572772 -71.82258987 413.12705612 C-73.95818818 410.979193 -76.1294855 408.87257951 -78.30587769 406.7661438 C-98.56559154 386.83696007 -107.98001029 368.59055844 -108.48252392 339.97965431 C-108.49527638 321.57073549 -106.74011761 303.18897048 -104 285 C-102.87472271 285.77709394 -101.75301138 286.55935314 -100.6328125 287.34375 C-99.69526123 287.99633789 -99.69526123 287.99633789 -98.73876953 288.66210938 C-96.38669514 290.47190545 -94.77490377 292.63346164 -93 295 C-89.8083601 298.35531374 -86.64742174 301.08206261 -83 304 C-83 247.9 -83 191.8 -83 134 C-83.66 134 -84.32 134 -85 134 C-85.25974609 134.58426758 -85.51949219 135.16853516 -85.78710938 135.77050781 C-87.084656 138.15561164 -88.49341122 139.75190637 -90.40625 141.671875 C-91.06753906 142.33574219 -91.72882813 142.99960937 -92.41015625 143.68359375 C-93.09980469 144.36550781 -93.78945313 145.04742187 -94.5 145.75 C-95.53447266 146.79607422 -95.53447266 146.79607422 -96.58984375 147.86328125 C-97.25113281 148.52199219 -97.91242188 149.18070313 -98.59375 149.859375 C-99.50157227 150.76381348 -99.50157227 150.76381348 -100.42773438 151.68652344 C-102 153 -102 153 -104 153 C-115.34741189 77.67559087 -115.34741189 77.67559087 -94.72944641 49.47886658 C-89.0463757 42.17962286 -82.75414188 35.53913841 -76.11271286 29.11118698 C-73.95833272 27.02021952 -71.84380801 24.89436325 -69.73098755 22.76150513 C-47.24707743 0.40810671 -31.78946985 -3.0979136 0 0 Z " fill="#595049" transform="translate(448,281)"/>
<path d="M0 0 C63.17569665 26.61872622 119.38127378 82.82430335 146 146 C171.78145171 211.18648546 172.01415007 294.25917741 144.71979332 359.03838539 C117.02424713 421.47304698 60.72291735 477.98390295 -3.07085609 503.21453285 C-68.66055025 527.75181393 -151.63914375 527.95603501 -216.04951477 499.38407898 C-277.93757608 470.68544784 -334.30296795 414.17319656 -358.37324524 349.83183289 C-381.82689249 283.83361409 -381.71045504 201.03578543 -351.99902296 136.96363783 C-301.66723629 32.82909227 -198.41136201 -23.48795672 0 0 Z M-208 21 C-208.33 21.99 -208.66 22.98 -209 24 C-209.639375 24.309375 -210.27875 24.61875 -210.9375 24.9375 C-213.45468915 26.2342338 -213.96886948 27.4221737 -215 30 C-215.66 30 -216.32 30 -217 30 C-217 30.66 -217 31.32 -217 32 C-217.61875 32.2475 -218.2375 32.495 -218.875 32.75 C-221.35068687 34.20628639 -221.95125002 35.37812506 -223 38 C-223.66 38 -224.32 38 -225 38 C-225 38.66 -225 39.32 -225 40 C-225.61875 40.2475 -226.2375 40.495 -226.875 40.75 C-229.35068687 42.20628639 -229.95125002 43.37812506 -231 46 C-231.66 46 -232.32 46 -233 46 C-233 46.66 -233 47.32 -233 48 C-233.61875 48.2475 -234.2375 48.495 -234.875 48.75 C-237.35068687 50.20628639 -237.95125002 51.37812506 -239 54 C-239.66 54 -240.32 54 -241 54 C-241 54.66 -241 55.32 -241 56 C-241.61875 56.2475 -242.2375 56.495 -242.875 56.75 C-245.35068687 58.20628639 -245.95125002 59.37812506 -247 62 C-247.66 62 -248.32 62 -249 62 C-249 62.66 -249 63.32 -249 64 C-249.61875 64.2475 -250.2375 64.495 -250.875 64.75 C-253.35068687 66.20628639 -253.95125002 67.37812506 -255 70 C-255.66 70 -256.32 70 -257 70 C-257 70.66 -257 71.32 -257 72 C-257.61875 72.2475 -258.2375 72.495 -258.875 72.75 C-261.35068687 74.20628639 -261.95125002 75.37812506 -263 78 C-263.66 78 -264.32 78 -265 78 C-265 78.66 -265 79.32 -265 80 C-265.928125 80.37125 -265.928125 80.37125 -266.875 80.75 C-269.35068687 82.20628639 -269.95125002 83.37812506 -271 86 C-271.66 86 -272.32 86 -273 86 C-273 86.66 -273 87.32 -273 88 C-273.928125 88.37125 -273.928125 88.37125 -274.875 88.75 C-277.35068687 90.20628639 -277.95125002 91.37812506 -279 94 C-279.66 94 -280.32 94 -281 94 C-281 94.66 -281 95.32 -281 96 C-281.61875 96.2475 -282.2375 96.495 -282.875 96.75 C-285.35068687 98.20628639 -285.95125002 99.37812506 -287 102 C-287.66 102 -288.32 102 -289 102 C-289 102.66 -289 103.32 -289 104 C-289.61875 104.2475 -290.2375 104.495 -290.875 104.75 C-293.35068687 106.20628639 -293.95125002 107.37812506 -295 110 C-295.66 110 -296.32 110 -297 110 C-297 110.66 -297 111.32 -297 112 C-297.61875 112.2475 -298.2375 112.495 -298.875 112.75 C-301.35068687 114.20628639 -301.95125002 115.37812506 -303 118 C-303.66 118 -304.32 118 -305 118 C-305 118.66 -305 119.32 -305 120 C-305.61875 120.2475 -306.2375 120.495 -306.875 120.75 C-309.35068687 122.20628639 -309.95125002 123.37812506 -311 126 C-311.66 126 -312.32 126 -313 126 C-313 126.66 -313 127.32 -313 128 C-313.61875 128.2475 -314.2375 128.495 -314.875 128.75 C-317.35068687 130.20628639 -317.95125002 131.37812506 -319 134 C-319.66 134 -320.32 134 -321 134 C-321 134.66 -321 135.32 -321 136 C-321.61875 136.2475 -322.2375 136.495 -322.875 136.75 C-325.35068687 138.20628639 -325.95125002 139.37812506 -327 142 C-327.66 142 -328.32 142 -329 142 C-329 142.66 -329 143.32 -329 144 C-329.61875 144.2475 -330.2375 144.495 -330.875 144.75 C-333.13746494 145.82143729 -333.13746494 145.82143729 -334 148 C-335.25311759 150.50623518 -336.46999996 150.93903224 -339 152 C-340.96891552 153.96891552 -340.16501572 157.8221114 -340.17408752 160.5140686 C-340.18058648 161.31036033 -340.18708543 162.10665206 -340.19378132 162.92707384 C-340.2142876 165.61624867 -340.22742872 168.30540824 -340.24047852 170.99462891 C-340.25328315 172.91443089 -340.26641846 174.8342307 -340.27986145 176.75402832 C-340.3958797 194.29743201 -340.45240777 211.84141018 -340.49662876 229.38512611 C-340.52987662 242.359152 -340.58943324 255.33248 -340.68413979 268.30620635 C-340.74843565 277.42132552 -340.78216049 286.53625437 -340.79337829 295.65159166 C-340.80094555 301.09877571 -340.82218325 306.54511777 -340.87640572 311.99205399 C-340.92683807 317.11901466 -340.93944971 322.24468726 -340.92315483 327.37185669 C-340.92375869 329.25244115 -340.93804356 331.13307914 -340.96710205 333.01343918 C-341.45889543 342.73858743 -341.45889543 342.73858743 -338.2690258 351.58097458 C-336.26363441 353.33949422 -334.27548509 354.62566816 -332 356 C-330.23774052 357.86295509 -330.23774052 357.86295509 -328.8125 359.625 C-325.68634975 363.40172746 -322.46131651 366.87591038 -318.5625 369.875 C-315.84133864 372.13157284 -313.73131032 374.56217204 -311.47265625 377.265625 C-308.75883728 380.46174071 -305.88523265 383.31905181 -302.5625 385.875 C-299.84133864 388.13157284 -297.73131032 390.56217204 -295.47265625 393.265625 C-292.75883728 396.46174071 -289.88523265 399.31905181 -286.5625 401.875 C-283.84133864 404.13157284 -281.73131032 406.56217204 -279.47265625 409.265625 C-276.75883728 412.46174071 -273.88523265 415.31905181 -270.5625 417.875 C-267.84133864 420.13157284 -265.73131032 422.56217204 -263.47265625 425.265625 C-260.75883728 428.46174071 -257.88523265 431.31905181 -254.5625 433.875 C-251.84133864 436.13157284 -249.73131032 438.56217204 -247.47265625 441.265625 C-244.75883728 444.46174071 -241.88523265 447.31905181 -238.5625 449.875 C-235.84133864 452.13157284 -233.73131032 454.56217204 -231.47265625 457.265625 C-228.75883728 460.46174071 -225.88523265 463.31905181 -222.5625 465.875 C-219.83889443 468.13359974 -217.7272339 470.5655614 -215.46875 473.2734375 C-213.44311089 475.65464092 -211.23755478 477.81838409 -209 480 C-208.57986265 480.50268186 -208.15972531 481.00536371 -207.72685653 481.52327836 C-204.93957247 484.71779593 -203.52632177 485.89348562 -199.24146557 486.76063347 C-197.80676366 486.79595369 -196.37102573 486.79882321 -194.93608093 486.77536011 C-194.14101177 486.78613118 -193.3459426 486.79690226 -192.52678043 486.80799973 C-189.87097776 486.83654382 -187.21717121 486.82235941 -184.5612793 486.80810547 C-182.65382284 486.81951391 -180.74638003 486.83344285 -178.83895874 486.84970093 C-173.66305811 486.88558883 -168.48783514 486.88322238 -163.31184745 486.87181616 C-158.98787392 486.86563441 -154.66403077 486.87781532 -150.34007579 486.88989365 C-140.13619348 486.91799026 -129.932646 486.9148581 -119.72875977 486.89208984 C-109.21065123 486.86913867 -98.69356327 486.89725673 -88.17558926 486.95088279 C-79.13838677 486.99522974 -70.10150425 487.00846396 -61.0642007 486.99672997 C-55.66967991 486.98999452 -50.27581295 486.99479381 -44.8813839 487.02923203 C-39.80589705 487.06021935 -34.73191809 487.0522104 -29.65649033 487.01462173 C-27.7977648 487.0072621 -25.938927 487.01343232 -24.0803051 487.03439331 C-12.4793161 487.3914095 -12.4793161 487.3914095 -2.49519348 482.13650513 C-0.57948844 480.08495723 -0.57948844 480.08495723 1 478 C1.47943212 477.44675489 1.95886423 476.89350979 2.45282459 476.32349968 C3.66708628 474.90908108 4.83548207 473.45564742 6 472 C8.55612636 469.31279024 11.1199811 466.90251536 14 464.5625 C17.07903881 461.93248768 19.45078401 459.1374966 22 456 C24.55612636 453.31279024 27.1199811 450.90251536 30 448.5625 C33.07903881 445.93248768 35.45078401 443.1374966 38 440 C40.55612636 437.31279024 43.1199811 434.90251536 46 432.5625 C49.07903881 429.93248768 51.45078401 427.1374966 54 424 C56.55612636 421.31279024 59.1199811 418.90251536 62 416.5625 C65.07903881 413.93248768 67.45078401 411.1374966 70 408 C72.55612636 405.31279024 75.1199811 402.90251536 78 400.5625 C81.07903881 397.93248768 83.45078401 395.1374966 86 392 C88.55612636 389.31279024 91.1199811 386.90251536 94 384.5625 C97.07903881 381.93248768 99.45078401 379.1374966 102 376 C104.55612636 373.31279024 107.1199811 370.90251536 110 368.5625 C113.07903881 365.93248768 115.45078401 363.1374966 118 360 C120.50015952 357.3748325 122.94988893 355.03897528 125.8125 352.8125 C126.534375 352.214375 127.25625 351.61625 128 351 C128 350.34 128 349.68 128 349 C128.66 349 129.32 349 130 349 C130.2337024 323.60044241 130.40999298 298.20104617 130.51812172 272.80062962 C130.56966468 261.00645041 130.63992283 249.21293961 130.75439453 237.41918945 C130.85413223 227.13854029 130.91859747 216.8583752 130.94088495 206.57725567 C130.95391163 201.1342179 130.98447709 195.69256486 131.05730057 190.24997139 C131.12533409 185.12368423 131.14608581 179.99934781 131.13107681 174.87265205 C131.13382115 172.99447006 131.15362541 171.11622083 131.19205475 169.23843002 C131.65277435 159.067054 131.65277435 159.067054 127.83805466 150.00587273 C125.26831824 147.60606415 125.26831824 147.60606415 122.53821373 145.78857327 C119.75186986 143.82515305 118.03741162 141.71436446 116 139 C113.28509102 136.13833918 110.46039445 133.52553788 107.4375 131 C104.55772117 128.56804854 102.30342609 125.99445392 100 123 C97.28509102 120.13833918 94.46039445 117.52553788 91.4375 115 C88.55772117 112.56804854 86.30342609 109.99445392 84 107 C81.28509102 104.13833918 78.46039445 101.52553788 75.4375 99 C72.55772117 96.56804854 70.30342609 93.99445392 68 91 C65.28509102 88.13833918 62.46039445 85.52553788 59.4375 83 C56.55772117 80.56804854 54.30342609 77.99445392 52 75 C49.28509102 72.13833918 46.46039445 69.52553788 43.4375 67 C40.55772117 64.56804854 38.30342609 61.99445392 36 59 C33.28509102 56.13833918 30.46039445 53.52553788 27.4375 51 C24.55772117 48.56804854 22.30342609 45.99445392 20 43 C17.28509102 40.13833918 14.46039445 37.52553788 11.4375 35 C8.55772117 32.56804854 6.30342609 29.99445392 4 27 C2.35511706 25.31183067 0.68662458 23.64646685 -1 22 C-1.42341295 21.49305562 -1.8468259 20.98611123 -2.28306955 20.4638049 C-5.07658148 17.25558293 -6.48016128 16.10330698 -10.78532505 15.24774647 C-12.23280842 15.21629028 -13.68123459 15.2173754 -15.12879944 15.24482727 C-16.33176191 15.2318457 -16.33176191 15.2318457 -17.55902666 15.21860188 C-20.23805283 15.19706344 -22.91499116 15.2182797 -25.59399414 15.23950195 C-27.51778657 15.23300686 -29.44157178 15.2239445 -31.36534119 15.21250916 C-36.58441515 15.18943639 -41.80275747 15.20414184 -47.02180791 15.22697854 C-52.48341617 15.24589499 -57.94497533 15.23473627 -63.40660095 15.22807312 C-72.57725648 15.22173325 -81.74761886 15.23999999 -90.91821289 15.27270508 C-101.52253287 15.31021038 -112.12629778 15.30841574 -122.73064715 15.2856639 C-132.93102516 15.26472142 -143.13119792 15.27198442 -153.33157158 15.29198265 C-157.67322077 15.29997184 -162.01469648 15.29797334 -166.35634041 15.28795815 C-171.46765668 15.27741407 -176.57832534 15.29151376 -181.68953896 15.32470131 C-183.56605519 15.33291519 -185.44263069 15.33261671 -187.31914139 15.32322311 C-189.87954926 15.31181289 -192.43793747 15.33114649 -194.9981842 15.35835266 C-196.11413761 15.34264543 -196.11413761 15.34264543 -197.25263554 15.32662088 C-202.53603753 15.43133364 -204.78410733 16.87189662 -208 21 Z " fill="#CD9663" transform="translate(605,249)"/>
<path d="M0 0 C2.31 1.98 4.62 3.96 7 6 C8.22482425 6.93409722 9.46327102 7.85129529 10.72703552 8.73199463 C11.37615906 9.19154258 12.02528259 9.65109053 12.69407654 10.12456417 C13.37954056 10.60971776 14.06500458 11.09487135 14.77124023 11.59472656 C25.43164795 19.29587559 35.55899998 27.57164595 45.4375 36.25 C46.32985352 37.03378651 47.22220703 37.81757301 48.14160156 38.62511063 C72.31898713 60.20531182 86.19136691 81.21022193 88.04932904 113.569098 C88.67932729 126.21071103 88.50662476 138.7953365 88 151.4375 C87.95785441 152.54714961 87.95785441 152.54714961 87.91485739 153.67921638 C87.31273379 169.39098573 86.30749388 185.06543988 84.66015625 200.70483398 C84.55533149 201.78320652 84.45050673 202.86157906 84.34250546 203.97262955 C83.70480342 209.44151791 83.14859389 213.04252646 79 217 C78.195625 217.845625 77.39125 218.69125 76.5625 219.5625 C74 222 74 222 71.5625 223.875 C68.84133864 226.13157284 66.73131032 228.56217204 64.47265625 231.265625 C61.75883728 234.46174071 58.88523265 237.31905181 55.5625 239.875 C52.84133864 242.13157284 50.73131032 244.56217204 48.47265625 247.265625 C45.75883728 250.46174071 42.88523265 253.31905181 39.5625 255.875 C36.84133864 258.13157284 34.73131032 260.56217204 32.47265625 263.265625 C29.75883728 266.46174071 26.88523265 269.31905181 23.5625 271.875 C20.84133864 274.13157284 18.73131032 276.56217204 16.47265625 279.265625 C13.01211691 283.34116736 9.15931371 286.67254903 5 290 C3.35 291.65 1.7 293.3 0 295 C0 197.65 0 100.3 0 0 Z " fill="#FEFBF8" transform="translate(573,353)"/>
<path d="M0 0 C1.65 0 3.3 0 5 0 C5.33 4.29 5.66 8.58 6 13 C6.9075 11.989375 7.815 10.97875 8.75 9.9375 C10.296875 8.21484375 10.296875 8.21484375 12 7 C14.203125 7.31640625 14.203125 7.31640625 16 8 C14.71937515 9.7074998 13.38232443 11.37373596 12 13 C11.34 13 10.68 13 10 13 C11.91202643 17.78006608 14.02766235 21.79772953 17 26 C14.8125 26.4375 14.8125 26.4375 12 26 C10.47721739 24.31282609 9.31032522 22.55899343 8.11328125 20.62890625 C7.083831 18.83937637 7.083831 18.83937637 5 18 C5 20.64 5 23.28 5 26 C3.35 26 1.7 26 0 26 C-0.495 23.525 -0.495 23.525 -1 21 C-2.299375 22.2375 -2.299375 22.2375 -3.625 23.5 C-5.94169652 25.40338916 -6.97114948 25.99398948 -10 26.625 C-14.25061619 25.73945496 -16.14809128 24.25932425 -19 21 C-19.69724396 17.0066937 -19.85292141 14.76943784 -18.109375 11.15234375 C-15.87828362 8.00650491 -14.27383047 7.0488983 -10.5 6.375 C-6.53809053 7.08248383 -4.7831139 8.13254931 -2 11 C-2 11.66 -2 12.32 -2 13 C-1.34 13 -0.68 13 0 13 C0 8.71 0 4.42 0 0 Z " fill="#0A0A0A" transform="translate(202,1026)"/>
<path d="M0 0 C0.99 0 1.98 0 3 0 C1.92598892 2.91517292 1.22189824 4.77810176 -1 7 C-2.32 7 -3.64 7 -5 7 C-5.103125 7.763125 -5.20625 8.52625 -5.3125 9.3125 C-6.05539884 12.21655911 -6.56993983 13.28995766 -9 15 C-10.32 15 -11.64 15 -13 15 C-13.103125 15.763125 -13.20625 16.52625 -13.3125 17.3125 C-14.05539884 20.21655911 -14.56993983 21.28995766 -17 23 C-18.32 23 -19.64 23 -21 23 C-21.103125 23.763125 -21.20625 24.52625 -21.3125 25.3125 C-22.05539884 28.21655911 -22.56993983 29.28995766 -25 31 C-26.32 31 -27.64 31 -29 31 C-29.103125 31.763125 -29.20625 32.52625 -29.3125 33.3125 C-30.05539884 36.21655911 -30.56993983 37.28995766 -33 39 C-34.32 39 -35.64 39 -37 39 C-37.103125 39.763125 -37.20625 40.52625 -37.3125 41.3125 C-38.05539884 44.21655911 -38.56993983 45.28995766 -41 47 C-42.32 47 -43.64 47 -45 47 C-45.103125 47.763125 -45.20625 48.52625 -45.3125 49.3125 C-46.05539884 52.21655911 -46.56993983 53.28995766 -49 55 C-50.32 55 -51.64 55 -53 55 C-53.103125 55.763125 -53.20625 56.52625 -53.3125 57.3125 C-54.05539884 60.21655911 -54.56993983 61.28995766 -57 63 C-58.32 63 -59.64 63 -61 63 C-61.103125 63.763125 -61.20625 64.52625 -61.3125 65.3125 C-62.05539884 68.21655911 -62.56993983 69.28995766 -65 71 C-66.32 71 -67.64 71 -69 71 C-69.103125 71.763125 -69.20625 72.52625 -69.3125 73.3125 C-70.05539884 76.21655911 -70.56993983 77.28995766 -73 79 C-74.32 79 -75.64 79 -77 79 C-77.103125 79.763125 -77.20625 80.52625 -77.3125 81.3125 C-78.05539884 84.21655911 -78.56993983 85.28995766 -81 87 C-82.32 87 -83.64 87 -85 87 C-85.103125 87.763125 -85.20625 88.52625 -85.3125 89.3125 C-86.05539884 92.21655911 -86.56993983 93.28995766 -89 95 C-90.32 95 -91.64 95 -93 95 C-93.103125 95.763125 -93.20625 96.52625 -93.3125 97.3125 C-94.05539884 100.21655911 -94.56993983 101.28995766 -97 103 C-98.32 103 -99.64 103 -101 103 C-101.103125 103.763125 -101.20625 104.52625 -101.3125 105.3125 C-102.05539884 108.21655911 -102.56993983 109.28995766 -105 111 C-106.32 111 -107.64 111 -109 111 C-109.103125 111.763125 -109.20625 112.52625 -109.3125 113.3125 C-110.07248389 116.28334611 -110.49748912 117.27413043 -113 119 C-116.1875 119.6875 -116.1875 119.6875 -119 120 C-117.71937515 118.2925002 -116.38232443 116.62626404 -115 115 C-114.34 115 -113.68 115 -113 115 C-113 114.34 -113 113.68 -113 113 C-112.34 113 -111.68 113 -111 113 C-110.7525 112.38125 -110.505 111.7625 -110.25 111.125 C-108.79371361 108.64931313 -107.62187494 108.04874998 -105 107 C-105 106.34 -105 105.68 -105 105 C-104.34 105 -103.68 105 -103 105 C-102.7525 104.38125 -102.505 103.7625 -102.25 103.125 C-100.79371361 100.64931313 -99.62187494 100.04874998 -97 99 C-97 98.34 -97 97.68 -97 97 C-96.34 97 -95.68 97 -95 97 C-94.7525 96.38125 -94.505 95.7625 -94.25 95.125 C-92.79371361 92.64931313 -91.62187494 92.04874998 -89 91 C-89 90.34 -89 89.68 -89 89 C-88.34 89 -87.68 89 -87 89 C-86.62875 88.071875 -86.62875 88.071875 -86.25 87.125 C-84.79371361 84.64931313 -83.62187494 84.04874998 -81 83 C-81 82.34 -81 81.68 -81 81 C-80.34 81 -79.68 81 -79 81 C-78.62875 80.071875 -78.62875 80.071875 -78.25 79.125 C-76.79371361 76.64931313 -75.62187494 76.04874998 -73 75 C-73 74.34 -73 73.68 -73 73 C-72.34 73 -71.68 73 -71 73 C-70.62875 72.071875 -70.62875 72.071875 -70.25 71.125 C-68.79371361 68.64931313 -67.62187494 68.04874998 -65 67 C-65 66.34 -65 65.68 -65 65 C-64.34 65 -63.68 65 -63 65 C-62.62875 64.071875 -62.62875 64.071875 -62.25 63.125 C-60.79371361 60.64931313 -59.62187494 60.04874998 -57 59 C-57 58.34 -57 57.68 -57 57 C-56.34 57 -55.68 57 -55 57 C-54.62875 56.071875 -54.62875 56.071875 -54.25 55.125 C-52.79371361 52.64931313 -51.62187494 52.04874998 -49 51 C-49 50.34 -49 49.68 -49 49 C-48.34 49 -47.68 49 -47 49 C-46.62875 48.071875 -46.62875 48.071875 -46.25 47.125 C-44.79371361 44.64931313 -43.62187494 44.04874998 -41 43 C-41 42.34 -41 41.68 -41 41 C-40.34 41 -39.68 41 -39 41 C-38.62875 40.071875 -38.62875 40.071875 -38.25 39.125 C-36.79371361 36.64931313 -35.62187494 36.04874998 -33 35 C-33 34.34 -33 33.68 -33 33 C-32.34 33 -31.68 33 -31 33 C-30.7525 32.38125 -30.505 31.7625 -30.25 31.125 C-28.79371361 28.64931313 -27.62187494 28.04874998 -25 27 C-25 26.34 -25 25.68 -25 25 C-24.34 25 -23.68 25 -23 25 C-22.7525 24.38125 -22.505 23.7625 -22.25 23.125 C-20.79371361 20.64931313 -19.62187494 20.04874998 -17 19 C-17 18.34 -17 17.68 -17 17 C-16.34 17 -15.68 17 -15 17 C-14.7525 16.38125 -14.505 15.7625 -14.25 15.125 C-12.79371361 12.64931313 -11.62187494 12.04874998 -9 11 C-9 10.34 -9 9.68 -9 9 C-8.34 9 -7.68 9 -7 9 C-6.62875 8.071875 -6.62875 8.071875 -6.25 7.125 C-4.77229238 4.61289704 -3.56044823 4.23892656 -1 3 C-0.67 2.01 -0.34 1.02 0 0 Z " fill="#F9EFE8" transform="translate(397,270)"/>
<path d="M0 0 C3.53494505 0.9336246 4.94397547 2.52143196 6.9375 5.51171875 C7.57747166 8.32079789 7.56770793 10.70133202 6.9375 13.51171875 C5.14386089 16.32175335 3.91869065 18.02112343 0.9375 19.51171875 C-2.79921591 19.85771096 -5.18159553 20.04489777 -8.4375 18.07421875 C-10.81100976 14.33137643 -11.48941968 10.92576325 -11.0625 6.51171875 C-8.98072538 1.40096205 -5.31701814 -0.45315496 0 0 Z " fill="#EBEBEB" transform="translate(174.0625,1032.48828125)"/>
<path d="M0 0 C3.53494505 0.9336246 4.94397547 2.52143196 6.9375 5.51171875 C7.57747166 8.32079789 7.56770793 10.70133202 6.9375 13.51171875 C5.14386089 16.32175335 3.91869065 18.02112343 0.9375 19.51171875 C-2.65954193 19.91139008 -4.63029887 19.73262155 -7.875 18.07421875 C-10.5428787 14.94898942 -11.09548806 12.82360431 -11.31640625 8.7734375 C-11.0388952 6.30145443 -10.54650432 4.97787407 -9.125 2.94921875 C-5.75090098 0.26371137 -4.19605943 -0.3576187 0 0 Z " fill="#ECECEC" transform="translate(109.0625,1032.48828125)"/>
<path d="M0 0 C0.33 0.66 0.66 1.32 1 2 C3.6905528 0.77992056 3.6905528 0.77992056 6 -1 C9.4375 -0.75 9.4375 -0.75 13 0 C15 3 15 3 14.8125 6.5625 C14 10 14 10 11 12 C8.5 12.3125 8.5 12.3125 6 12 C4.3125 10.5 4.3125 10.5 3 9 C2.34 9 1.68 9 1 9 C0.566875 9.495 0.13375 9.99 -0.3125 10.5 C-2 12 -2 12 -4.5 12.375 C-7 12 -7 12 -8.8125 10.9375 C-10.67036623 7.90624457 -10.37133265 5.46577141 -10 2 C-7.70989947 -2.31077747 -4.20045325 -1.01122023 0 0 Z " fill="#121212" transform="translate(822,1039)"/>
<path d="M0 0 C2.50164525 1.43734881 3.96305664 2.86369354 6 5 C6 5.99 6 6.98 6 8 C4.68 8 3.36 8 2 8 C1.34 7.01 0.68 6.02 0 5 C-3.58357241 4.74984127 -3.58357241 4.74984127 -7 5 C-7 6.32 -7 7.64 -7 9 C-5.84371094 9.39832031 -5.84371094 9.39832031 -4.6640625 9.8046875 C-3.66117188 10.15789062 -2.65828125 10.51109375 -1.625 10.875 C-0.12839844 11.39707031 -0.12839844 11.39707031 1.3984375 11.9296875 C4 13 4 13 6 15 C6.36599043 18.36711191 6.37424895 20.34060899 4.6875 23.3125 C2.13933842 25.86066158 0.11291802 25.99384084 -3.4375 26.1875 C-8.65217391 25.91304348 -8.65217391 25.91304348 -11 24 C-12.25 20.875 -12.25 20.875 -13 18 C-11.68 18 -10.36 18 -9 18 C-8.34 18.99 -7.68 19.98 -7 21 C-5.02252878 21.36297936 -5.02252878 21.36297936 -2.875 21.1875 C-1.59625 21.125625 -0.3175 21.06375 1 21 C0.67 19.35 0.34 17.7 0 16 C-0.69867188 15.80664062 -1.39734375 15.61328125 -2.1171875 15.4140625 C-3.02726563 15.15367188 -3.93734375 14.89328125 -4.875 14.625 C-5.77992188 14.36976562 -6.68484375 14.11453125 -7.6171875 13.8515625 C-10 13 -10 13 -12 11 C-12.4375 7.625 -12.4375 7.625 -12 4 C-8.4615505 -0.18180395 -5.32920466 -0.84145337 0 0 Z " fill="#E7E7E7" transform="translate(143,1026)"/>
<path d="M0 0 C0.99 0 1.98 0 3 0 C3.33 2.64 3.66 5.28 4 8 C5.32 6.68 6.64 5.36 8 4 C8.99 4.33 9.98 4.66 11 5 C9.68 6.32 8.36 7.64 7 9 C7.433125 9.86625 7.433125 9.86625 7.875 10.75 C8.91666667 12.83333333 9.95833333 14.91666667 11 17 C7.20411134 16.45773019 5.52788007 14.79872437 3 12 C3 13.65 3 15.3 3 17 C2.01 17 1.02 17 0 17 C-0.33 16.01 -0.66 15.02 -1 14 C-1.66 14 -2.32 14 -3 14 C-3 14.66 -3 15.32 -3 16 C-9.37426409 17.32296047 -9.37426409 17.32296047 -11.9375 16 C-13.58367385 12.90131981 -13.36841966 10.43858351 -13 7 C-11.9375 5 -11.9375 5 -10 4 C-6.4375 4.125 -6.4375 4.125 -3 5 C-2.01 6.485 -2.01 6.485 -1 8 C-0.67 5.36 -0.34 2.72 0 0 Z " fill="#0F0F0F" transform="translate(794,1034)"/>
<path d="M0 0 C4.05644724 0.72436558 5.79894179 1.51469054 8.5 4.625 C8.5 6.605 8.5 8.585 8.5 10.625 C4.21 10.625 -0.08 10.625 -4.5 10.625 C-4.17 12.275 -3.84 13.925 -3.5 15.625 C-0.58347826 15.79181109 -0.58347826 15.79181109 2.5 15.625 C3.16 14.965 3.82 14.305 4.5 13.625 C6.625 14 6.625 14 8.5 14.625 C7 17.125 7 17.125 4.5 19.625 C-0.40852174 20.48204348 -0.40852174 20.48204348 -3.5 19.625 C-7.0341186 16.6062737 -8.30734394 14.70387394 -9.125 10.125 C-8.11708415 4.48067123 -6.00880338 1.0730006 0 0 Z " fill="#E9E9E9" transform="translate(56.5,1032.375)"/>
<path d="M0 0 C1.32 0 2.64 0 4 0 C6.31 6.6 8.62 13.2 11 20 C13.31 13.4 15.62 6.8 18 0 C19.32 0 20.64 0 22 0 C20.36231563 9.00726401 17.13020303 17.42639358 14 26 C12.35 26 10.7 26 9 26 C0 4.8647541 0 4.8647541 0 0 Z " fill="#ECECEC" transform="translate(27,1026)"/>
<path d="M0 0 C1.32 0 2.64 0 4 0 C4.33 4.29 4.66 8.58 5 13 C5.9075 11.989375 6.815 10.97875 7.75 9.9375 C9.296875 8.21484375 9.296875 8.21484375 11 7 C13.203125 7.31640625 13.203125 7.31640625 15 8 C13.71937515 9.7074998 12.38232443 11.37373596 11 13 C10.34 13 9.68 13 9 13 C10.91202643 17.78006608 13.02766235 21.79772953 16 26 C13.8125 26.4375 13.8125 26.4375 11 26 C9.47721739 24.31282609 8.31032522 22.55899343 7.11328125 20.62890625 C6.083831 18.83937637 6.083831 18.83937637 4 18 C4 20.64 4 23.28 4 26 C2.68 26 1.36 26 0 26 C0 17.42 0 8.84 0 0 Z " fill="#E6E6E6" transform="translate(203,1026)"/>
<path d="M0 0 C1.9375 1.125 1.9375 1.125 3 3 C2.625 6.125 2.625 6.125 2 9 C2.33 9.33 2.66 9.66 3 10 C3.25 12.4375 3.25 12.4375 3 15 C-0.46998729 17.31332486 -1.92509248 17.33957563 -6 17 C-6.99 16.34 -7.98 15.68 -9 15 C-8.814375 13.7625 -8.62875 12.525 -8.4375 11.25 C-8.10163958 8.71089523 -7.95109478 7.18094931 -8.625 4.6875 C-9 3 -9 3 -7.9375 1.25 C-5.15593839 -0.54455588 -3.24250962 -0.4053137 0 0 Z " fill="#E9E9E9" transform="translate(927,1034)"/>
<path d="M0 0 C3.0625 0.3125 3.0625 0.3125 5 1.4375 C6.5777372 4.22174212 5.722188 6.27793521 5.0625 9.3125 C5.3925 9.6425 5.7225 9.9725 6.0625 10.3125 C6.3125 12.75 6.3125 12.75 6.0625 15.3125 C2.59251271 17.62582486 1.13740752 17.65207563 -2.9375 17.3125 C-3.9275 16.6525 -4.9175 15.9925 -5.9375 15.3125 C-6.125 12.9375 -6.125 12.9375 -5.9375 10.3125 C-5.9375 8.9925 -5.9375 7.6725 -5.9375 6.3125 C-5.2208209 2.25131846 -4.39109068 0.46713731 0 0 Z " fill="#DEDEDE" transform="translate(895.9375,1033.6875)"/>
<path d="M0 0 C3.9375 0.625 3.9375 0.625 6.4375 2.4375 C7.9375 4.625 7.9375 4.625 7.9375 7.625 C6.6175 7.295 5.2975 6.965 3.9375 6.625 C3.9375 5.965 3.9375 5.305 3.9375 4.625 C1.02097826 4.45818891 1.02097826 4.45818891 -2.0625 4.625 C-4.44244368 6.56832332 -4.44244368 6.56832332 -4.3125 10.125 C-4.44244368 13.68167668 -4.44244368 13.68167668 -2.0625 15.625 C1.02097826 15.79181109 1.02097826 15.79181109 3.9375 15.625 C4.2675 14.635 4.5975 13.645 4.9375 12.625 C5.9275 12.625 6.9175 12.625 7.9375 12.625 C7.58143309 15.20648508 7.10421807 16.44545747 5.3125 18.375 C1.92582458 20.15746075 -0.28746295 20.15482976 -4.0625 19.625 C-7 17.625 -7 17.625 -9.0625 14.625 C-9.80194481 9.96649769 -9.78223922 7.03809419 -7.0625 3.125 C-3.55147796 0.1991483 -3.55147796 0.1991483 0 0 Z " fill="#E8E8E8" transform="translate(76.0625,1032.375)"/>
<path d="M0 0 C3.98106749 0.71090491 5.74051909 1.69827783 8.5 4.625 C8.5 5.615 8.5 6.605 8.5 7.625 C5.63275314 7.05155063 4.6385485 6.7635485 2.5 4.625 C-0.80683466 4.91483269 -0.80683466 4.91483269 -3.5 6.625 C-3.75003964 10.08321402 -3.75003964 10.08321402 -3.5 13.625 C-1.60244856 15.97473818 -1.60244856 15.97473818 1.625 15.75 C3.048125 15.688125 3.048125 15.688125 4.5 15.625 C4.83 14.635 5.16 13.645 5.5 12.625 C6.49 12.625 7.48 12.625 8.5 12.625 C8.13802104 15.24934747 7.67343943 16.44513689 5.8125 18.375 C2.7015993 20.05656795 0.99911355 20.18485817 -2.5 19.625 C-5.875 17.625 -5.875 17.625 -8.5 14.625 C-9.19724396 10.6316937 -9.35292141 8.39443784 -7.609375 4.77734375 C-5.37828362 1.63150491 -3.77383047 0.6738983 0 0 Z " fill="#E5E5E5" transform="translate(191.5,1032.375)"/>
<path d="M0 0 C2 3 2 3 1.8125 6.5625 C1 10 1 10 -2 12 C-4.79523674 12.34940459 -6.3648354 12.37233787 -8.8125 10.9375 C-10.67036623 7.90624457 -10.37133265 5.46577141 -10 2 C-7.71139092 -2.30797003 -4.19123206 -1.06685907 0 0 Z " fill="#E1E1E1" transform="translate(835,1039)"/>
<path d="M0 0 C2 3 2 3 1.8125 6.5625 C1 10 1 10 -2 12 C-4.79523674 12.34940459 -6.3648354 12.37233787 -8.8125 10.9375 C-10.67036623 7.90624457 -10.37133265 5.46577141 -10 2 C-7.71139092 -2.30797003 -4.19123206 -1.06685907 0 0 Z " fill="#E1E1E1" transform="translate(778,1039)"/>
<path d="M0 0 C2 3 2 3 1.8125 6.5625 C1 10 1 10 -2 12 C-4.79523674 12.34940459 -6.3648354 12.37233787 -8.8125 10.9375 C-10.67036623 7.90624457 -10.37133265 5.46577141 -10 2 C-7.71139092 -2.30797003 -4.19123206 -1.06685907 0 0 Z " fill="#DBDBDB" transform="translate(735,1039)"/>
<path d="M0 0 C2.62527189 -0.05382106 5.24944713 -0.09358313 7.875 -0.125 C8.62136719 -0.14175781 9.36773438 -0.15851563 10.13671875 -0.17578125 C12.09194461 -0.1933959 14.04742021 -0.10320189 16 0 C18 2 18 2 18.1953125 4.6015625 C18.17210937 5.59929687 18.14890625 6.59703125 18.125 7.625 C18.10695313 8.62789062 18.08890625 9.63078125 18.0703125 10.6640625 C18.04710937 11.43492188 18.02390625 12.20578125 18 13 C17.34 13 16.68 13 16 13 C15.67 10.03 15.34 7.06 15 4 C13.68 4 12.36 4 11 4 C10.67 6.97 10.34 9.94 10 13 C9.34 13 8.68 13 8 13 C7.67 9.7 7.34 6.4 7 3 C6.01 3 5.02 3 4 3 C3.67 6.3 3.34 9.6 3 13 C2.01 13 1.02 13 0 13 C0 8.71 0 4.42 0 0 Z " fill="#EEEEEE" transform="translate(838,1038)"/>
<path d="M0 0 C1 1 1 1 1.25 4.875 C1.2073067 7.517241 1.14785737 8.7431951 -0.1875 11.0625 C-2 12 -2 12 -4.5625 11.8125 C-7 11 -7 11 -9 9 C-9.54782609 2.97391304 -9.54782609 2.97391304 -7.875 0 C-5.042116 -1.51087147 -3.01987426 -0.78779328 0 0 Z " fill="#0A0A0A" transform="translate(111,1037)"/>
<path d="M0 0 C1.52491998 3.04983996 1.23562548 5.6423369 1 9 C-0.1875 11 -0.1875 11 -2 12 C-5.34192692 11.75546876 -6.60543557 11.39456443 -9 9 C-9.54782609 2.97391304 -9.54782609 2.97391304 -7.875 0 C-5.01598528 -1.52480785 -3.03270286 -0.8570682 0 0 Z " fill="#080808" transform="translate(176,1037)"/>
<path d="M0 0 C0.99 0 1.98 0 3 0 C3 1.32 3 2.64 3 4 C4.32 4 5.64 4 7 4 C7 4.99 7 5.98 7 7 C5.68 7 4.36 7 3 7 C3 11.29 3 15.58 3 20 C4.32 20 5.64 20 7 20 C7 20.99 7 21.98 7 23 C5.00045254 23.04254356 2.99958364 23.04080783 1 23 C0 22 0 22 -0.09765625 18.62109375 C-0.09098369 17.22652923 -0.07902532 15.83198257 -0.0625 14.4375 C-0.05798828 13.72658203 -0.05347656 13.01566406 -0.04882812 12.28320312 C-0.03700864 10.52209987 -0.01907263 8.76103964 0 7 C-1.32 7 -2.64 7 -4 7 C-4 6.01 -4 5.02 -4 4 C-2.68 4 -1.36 4 0 4 C0 2.68 0 1.36 0 0 Z " fill="#F9F9F9" transform="translate(154,1029)"/>
<path d="M0 0 C0.99 0 1.98 0 3 0 C3 1.32 3 2.64 3 4 C4.32 4 5.64 4 7 4 C7 4.99 7 5.98 7 7 C5.68 7 4.36 7 3 7 C3 11.29 3 15.58 3 20 C4.32 20 5.64 20 7 20 C7 20.99 7 21.98 7 23 C5.00045254 23.04254356 2.99958364 23.04080783 1 23 C0 22 0 22 -0.09765625 18.62109375 C-0.09098369 17.22652923 -0.07902532 15.83198257 -0.0625 14.4375 C-0.05798828 13.72658203 -0.05347656 13.01566406 -0.04882812 12.28320312 C-0.03700864 10.52209987 -0.01907263 8.76103964 0 7 C-1.32 7 -2.64 7 -4 7 C-4 6.01 -4 5.02 -4 4 C-2.68 4 -1.36 4 0 4 C0 2.68 0 1.36 0 0 Z " fill="#F9F9F9" transform="translate(89,1029)"/>
<path d="M0 0 C1.875 1.375 1.875 1.375 3 3 C3 3.66 3 4.32 3 5 C-1.455 4.01 -1.455 4.01 -6 3 C-5.35932024 6.08759559 -5.35932024 6.08759559 -3.15234375 6.94921875 C-2.42144531 7.19285156 -1.69054687 7.43648437 -0.9375 7.6875 C-0.20402344 7.93886719 0.52945313 8.19023438 1.28515625 8.44921875 C1.85105469 8.63097656 2.41695312 8.81273437 3 9 C3.1875 11.875 3.1875 11.875 3 15 C-0.46923881 17.31282587 -1.92205575 17.42478586 -6 17 C-7.875 15.625 -7.875 15.625 -9 14 C-9 13.34 -9 12.68 -9 12 C-8.01 12 -7.02 12 -6 12 C-5.67 12.66 -5.34 13.32 -5 14 C-3.35 13.67 -1.7 13.34 0 13 C0 12.34 0 11.68 0 11 C-0.56589844 10.84144531 -1.13179687 10.68289063 -1.71484375 10.51953125 C-3.92756716 9.81565965 -5.94841871 9.09044132 -8 8 C-9.1875 5.5 -9.1875 5.5 -9 3 C-6.83453349 -0.6940311 -3.97364694 -0.49670587 0 0 Z " fill="#D5D5D5" transform="translate(755,1034)"/>
<path d="M0 0 C2.475 0.495 2.475 0.495 5 1 C7.72502965 0.62277985 7.72502965 0.62277985 10 0 C10 1.32 10 2.64 10 4 C8.35 4.66 6.7 5.32 5 6 C4.67 10.29 4.34 14.58 4 19 C2.68 19 1.36 19 0 19 C0 12.73 0 6.46 0 0 Z " fill="#E7E7E7" transform="translate(119,1033)"/>
<path d="M0 0 C3.3 0 6.6 0 10 0 C10 0.66 10 1.32 10 2 C7.36 2 4.72 2 2 2 C2.33 2.99 2.66 3.98 3 5 C3.763125 4.938125 4.52625 4.87625 5.3125 4.8125 C8 5 8 5 9.875 6.0625 C11.69848531 9.20294693 10.8658284 11.5985313 10 15 C6.76746204 17.15502531 5.74849077 17.46856135 2 17 C0.1875 15.625 0.1875 15.625 -1 14 C-1 13.34 -1 12.68 -1 12 C-0.13375 12.495 -0.13375 12.495 0.75 13 C3.19883862 14.27075898 3.19883862 14.27075898 7 14 C7 12.02 7 10.04 7 8 C4.36 8.33 1.72 8.66 -1 9 C-0.67 6.03 -0.34 3.06 0 0 Z " fill="#E8E8E8" transform="translate(869,1034)"/>
<path d="M0 0 C1.8125 1.25 1.8125 1.25 3 3 C3 4.32 3 5.64 3 7 C0.03 7 -2.94 7 -6 7 C-5.01 8.485 -5.01 8.485 -4 10 C-0.535 9.505 -0.535 9.505 3 9 C2.67 9.99 2.34 10.98 2 12 C-4.37426409 13.32296047 -4.37426409 13.32296047 -6.9375 12 C-8.58367385 8.90131981 -8.36841966 6.43858351 -8 3 C-5.95177941 -0.34183359 -3.7548828 -0.56323242 0 0 Z " fill="#F9F9F9" transform="translate(699,1038)"/>
<path d="M0 0 C0.99 0 1.98 0 3 0 C3.33 2.64 3.66 5.28 4 8 C5.32 6.68 6.64 5.36 8 4 C8.99 4.33 9.98 4.66 11 5 C9.68 6.32 8.36 7.64 7 9 C7.28875 9.5775 7.5775 10.155 7.875 10.75 C9.4375 13.875 9.4375 13.875 11 17 C7.20411134 16.45773019 5.52788007 14.79872437 3 12 C3 13.65 3 15.3 3 17 C2.01 17 1.02 17 0 17 C0 11.39 0 5.78 0 0 Z " fill="#D4D4D4" transform="translate(794,1034)"/>
<path d="M0 0 C3.3 0 6.6 0 10 0 C10 0.66 10 1.32 10 2 C7.36 2 4.72 2 2 2 C2.33 2.99 2.66 3.98 3 5 C3.763125 4.938125 4.52625 4.87625 5.3125 4.8125 C8 5 8 5 9.875 6.0625 C11.69848531 9.20294693 10.8658284 11.5985313 10 15 C6.76746204 17.15502531 5.74849077 17.46856135 2 17 C0.1875 15.625 0.1875 15.625 -1 14 C-1 13.34 -1 12.68 -1 12 C-0.13375 12.495 -0.13375 12.495 0.75 13 C3.19883862 14.27075898 3.19883862 14.27075898 7 14 C7 12.02 7 10.04 7 8 C4.69 8.33 2.38 8.66 0 9 C0 6.03 0 3.06 0 0 Z " fill="#E9E9E9" transform="translate(960,1034)"/>
<path d="M0 0 C3.3 0 6.6 0 10 0 C10 0.66 10 1.32 10 2 C7.36 2 4.72 2 2 2 C2.33 2.99 2.66 3.98 3 5 C3.763125 4.938125 4.52625 4.87625 5.3125 4.8125 C8 5 8 5 9.875 6.0625 C11.69848531 9.20294693 10.8658284 11.5985313 10 15 C6.76746204 17.15502531 5.74849077 17.46856135 2 17 C0.1875 15.625 0.1875 15.625 -1 14 C-1 13.34 -1 12.68 -1 12 C-0.13375 12.495 -0.13375 12.495 0.75 13 C3.19883862 14.27075898 3.19883862 14.27075898 7 14 C7 12.02 7 10.04 7 8 C4.69 8.33 2.38 8.66 0 9 C0 6.03 0 3.06 0 0 Z " fill="#F4F4F4" transform="translate(933,1034)"/>
<path d="M0 0 C3.63 0 7.26 0 11 0 C10 4 10 4 8 6 C8.66 6.391875 9.32 6.78375 10 7.1875 C12 9 12 9 12.5 11.5 C12 14 12 14 10.4375 15.875 C7.03118195 17.44714679 4.59718087 16.76094211 1 16 C0.67 14.68 0.34 13.36 0 12 C0.86625 12.495 0.86625 12.495 1.75 13 C4.19883862 14.27075898 4.19883862 14.27075898 8 14 C8 12.35 8 10.7 8 9 C5.525 8.01 5.525 8.01 3 7 C4.32 5.68 5.64 4.36 7 3 C4.69 2.67 2.38 2.34 0 2 C0 1.34 0 0.68 0 0 Z " fill="#E4E4E4" transform="translate(904,1034)"/>
<path d="M0 0 C3 1 3 1 3.94921875 2.70703125 C4.19285156 3.40183594 4.43648437 4.09664062 4.6875 4.8125 C4.93886719 5.49957031 5.19023438 6.18664063 5.44921875 6.89453125 C6 9 6 9 6 13 C6.66 13 7.32 13 8 13 C8.12117187 12.39671875 8.24234375 11.7934375 8.3671875 11.171875 C8.53476562 10.37265625 8.70234375 9.5734375 8.875 8.75 C9.03742187 7.96109375 9.19984375 7.1721875 9.3671875 6.359375 C9.99150075 4.03168856 10.84838542 2.10968048 12 0 C12.99 0.33 13.98 0.66 15 1 C13.02 6.28 11.04 11.56 9 17 C7.68 17 6.36 17 5 17 C4.16080602 14.73117913 3.32848276 12.46022973 2.5 10.1875 C2.26152344 9.54490234 2.02304687 8.90230469 1.77734375 8.24023438 C0.72931254 5.35066261 0 3.09923939 0 0 Z " fill="#DEDEDE" transform="translate(676,1034)"/>
<path d="M0 0 C0 1.65 0 3.3 0 5 C0.99 4.34 1.98 3.68 3 3 C5.6875 3.375 5.6875 3.375 8 4 C8 5.98 8 7.96 8 10 C3.5505618 11.23595506 3.5505618 11.23595506 0.8125 10.0625 C0.214375 9.711875 -0.38375 9.36125 -1 9 C-1.66 9 -2.32 9 -3 9 C-3.66 7.02 -4.32 5.04 -5 3 C-1.125 0 -1.125 0 0 0 Z " fill="#1C1C1C" transform="translate(933,1038)"/>
<path d="M0 0 C0.33 0 0.66 0 1 0 C1.66 1.98 2.32 3.96 3 6 C6.47147842 6.74957157 6.47147842 6.74957157 10 7 C10.33 6.01 10.66 5.02 11 4 C11.99 4 12.98 4 14 4 C13.63802104 6.62434747 13.17343943 7.82013689 11.3125 9.75 C8.24885205 11.40602592 6.44265183 11.4918074 3 11 C0.125 9 0.125 9 -2 7 C-1.125 2.25 -1.125 2.25 0 0 Z " fill="#EEEEEE" transform="translate(186,1041)"/>
<path d="M0 0 C1.875 1.5 1.875 1.5 3 3 C2.67 3.99 2.34 4.98 2 6 C-0.64 6.33 -3.28 6.66 -6 7 C-6 7.66 -6 8.32 -6 9 C-8 8 -8 8 -8.8125 5.625 C-9 3 -9 3 -7.9375 1.1875 C-5.14776246 -0.52233914 -3.20890425 -0.40111303 0 0 Z " fill="#D4D4D4" transform="translate(927,1034)"/>
<path d="M0 0 C0.33 1.32 0.66 2.64 1 4 C0.4225 3.649375 -0.155 3.29875 -0.75 2.9375 C-3.35801776 1.85082593 -4.39417629 2.06934867 -7 3 C-7 4.65 -7 6.3 -7 8 C-4.39417629 8.93065133 -3.35801776 9.14917407 -0.75 8.0625 C-0.1725 7.711875 0.405 7.36125 1 7 C0.67 8.32 0.34 9.64 0 11 C-6.37426409 12.32296047 -6.37426409 12.32296047 -8.9375 11 C-10.58367385 7.90131981 -10.36841966 5.43858351 -10 2 C-7.69981438 -2.32976117 -4.22839932 -0.87759231 0 0 Z " fill="#F1F1F1" transform="translate(822,1039)"/>
<path d="M0 0 C0.33 1.32 0.66 2.64 1 4 C0.4225 3.649375 -0.155 3.29875 -0.75 2.9375 C-3.35801776 1.85082593 -4.39417629 2.06934867 -7 3 C-7 4.65 -7 6.3 -7 8 C-4.39417629 8.93065133 -3.35801776 9.14917407 -0.75 8.0625 C-0.1725 7.711875 0.405 7.36125 1 7 C0.67 8.32 0.34 9.64 0 11 C-6.37426409 12.32296047 -6.37426409 12.32296047 -8.9375 11 C-10.58367385 7.90131981 -10.36841966 5.43858351 -10 2 C-7.69981438 -2.32976117 -4.22839932 -0.87759231 0 0 Z " fill="#E9E9E9" transform="translate(791,1039)"/>
<path d="M0 0 C0.33 1.32 0.66 2.64 1 4 C0.4225 3.649375 -0.155 3.29875 -0.75 2.9375 C-3.35801776 1.85082593 -4.39417629 2.06934867 -7 3 C-7 4.65 -7 6.3 -7 8 C-4.39417629 8.93065133 -3.35801776 9.14917407 -0.75 8.0625 C-0.1725 7.711875 0.405 7.36125 1 7 C0.67 8.32 0.34 9.64 0 11 C-6.37426409 12.32296047 -6.37426409 12.32296047 -8.9375 11 C-10.58367385 7.90131981 -10.36841966 5.43858351 -10 2 C-7.69981438 -2.32976117 -4.22839932 -0.87759231 0 0 Z " fill="#E9E9E9" transform="translate(714,1039)"/>
<path d="M0 0 C0.99 0 1.98 0 3 0 C3 0.99 3 1.98 3 3 C3.99 3 4.98 3 6 3 C6 3.66 6 4.32 6 5 C5.01 5 4.02 5 3 5 C3 7.97 3 10.94 3 14 C3.99 14 4.98 14 6 14 C6 14.66 6 15.32 6 16 C4.33388095 16.042721 2.66617115 16.04063832 1 16 C0 15 0 15 -0.09765625 12.71484375 C-0.08025391 11.34005859 -0.08025391 11.34005859 -0.0625 9.9375 C-0.05347656 9.01839844 -0.04445313 8.09929687 -0.03515625 7.15234375 C-0.02355469 6.44207031 -0.01195312 5.73179688 0 5 C-0.66 5 -1.32 5 -2 5 C-2 4.34 -2 3.68 -2 3 C-1.34 3 -0.68 3 0 3 C0 2.01 0 1.02 0 0 Z " fill="#D7D7D7" transform="translate(718,1035)"/>
<path d="M0 0 C0 5.61 0 11.22 0 17 C-0.99 17 -1.98 17 -3 17 C-3 12.71 -3 8.42 -3 4 C-4.32 4.33 -5.64 4.66 -7 5 C-5.22678182 1.07358831 -4.52021524 0 0 0 Z " fill="#ECECEC" transform="translate(888,1034)"/>
<path d="M0 0 C3.96 0 7.92 0 12 0 C11.57664615 6.49142565 9.08900201 11.33492989 6 17 C5.34 17 4.68 17 4 17 C5.63958758 11.76727367 7.38952035 6.84803364 10 2 C6.7 2 3.4 2 0 2 C0 1.34 0 0.68 0 0 Z " fill="#E4E4E4" transform="translate(945,1034)"/>
<path d="M0 0 C0.99 0 1.98 0 3 0 C3 0.99 3 1.98 3 3 C3.99 3 4.98 3 6 3 C6 3.66 6 4.32 6 5 C5.01 5 4.02 5 3 5 C3 7.97 3 10.94 3 14 C3.66 14 4.32 14 5 14 C5 14.66 5 15.32 5 16 C3.35 15.67 1.7 15.34 0 15 C0 11.7 0 8.4 0 5 C-0.66 5 -1.32 5 -2 5 C-2 4.34 -2 3.68 -2 3 C-1.34 3 -0.68 3 0 3 C0 2.01 0 1.02 0 0 Z " fill="#D9D9D9" transform="translate(761,1035)"/>
<path d="M0 0 C4.44936709 -0.36075949 4.44936709 -0.36075949 6.8125 1.1875 C8.41501866 3.63344953 8.4409511 5.13381787 8 8 C4.53001271 10.31332486 3.07490752 10.33957563 -1 10 C-1.99 9.34 -2.98 8.68 -4 8 C-3.67 6.35 -3.34 4.7 -3 3 C-2.01 4.32 -1.02 5.64 0 7 C1.65 6.67 3.3 6.34 5 6 C4.67 5.01 4.34 4.02 4 3 C2.35 2.67 0.7 2.34 -1 2 C-0.67 1.34 -0.34 0.68 0 0 Z " fill="#EEEEEE" transform="translate(894,1041)"/>
<path d="M0 0 C7.35678392 -0.36180905 7.35678392 -0.36180905 10 1.125 C11.42098605 3.78934884 11.19767261 6.03491085 11 9 C8.36 9 5.72 9 3 9 C3.66 8.38125 4.32 7.7625 5 7.125 C7.2284549 5.24362573 7.2284549 5.24362573 7 3 C4.36 2.67 1.72 2.34 -1 2 C-0.67 1.34 -0.34 0.68 0 0 Z " fill="#F2F2F2" transform="translate(54,1034)"/>
<path d="M0 0 C0.66 0 1.32 0 2 0 C0.94744358 5.26278209 -0.33743201 10.37487802 -1.9375 15.5 C-2.25589844 16.5209375 -2.57429687 17.541875 -2.90234375 18.59375 C-3.26457031 19.3878125 -3.62679687 20.181875 -4 21 C-4.99 21.33 -5.98 21.66 -7 22 C-5.0827282 14.49068545 -2.75950985 7.24196241 0 0 Z " fill="#DCDCDC" transform="translate(864,1033)"/>
<path d="M0 0 C2.31 0 4.62 0 7 0 C7 0.99 7 1.98 7 3 C6.01 3.33 5.02 3.66 4 4 C3.67 6.97 3.34 9.94 3 13 C2.01 13 1.02 13 0 13 C0 8.71 0 4.42 0 0 Z " fill="#D2D2D2" transform="translate(738,1038)"/>
<path d="M0 0 C3.53571429 0.53571429 3.53571429 0.53571429 5 2 C5.1875 4.4375 5.1875 4.4375 5 7 C4.34 7.66 3.68 8.32 3 9 C-0.53571429 8.46428571 -0.53571429 8.46428571 -2 7 C-2.1875 4.5625 -2.1875 4.5625 -2 2 C-1.34 1.34 -0.68 0.68 0 0 Z " fill="#111111" transform="translate(829,1040)"/>
<path d="M0 0 C3.53571429 0.53571429 3.53571429 0.53571429 5 2 C5.1875 4.4375 5.1875 4.4375 5 7 C4.34 7.66 3.68 8.32 3 9 C-0.53571429 8.46428571 -0.53571429 8.46428571 -2 7 C-2.1875 4.5625 -2.1875 4.5625 -2 2 C-1.34 1.34 -0.68 0.68 0 0 Z " fill="#111111" transform="translate(772,1040)"/>
<path d="M0 0 C3.53571429 0.53571429 3.53571429 0.53571429 5 2 C5.1875 4.4375 5.1875 4.4375 5 7 C4.34 7.66 3.68 8.32 3 9 C-0.53571429 8.46428571 -0.53571429 8.46428571 -2 7 C-2.1875 4.5625 -2.1875 4.5625 -2 2 C-1.34 1.34 -0.68 0.68 0 0 Z " fill="#111111" transform="translate(729,1040)"/>
<path d="M0 0 C2.97 0.495 2.97 0.495 6 1 C6.1875 3.875 6.1875 3.875 6 7 C2.53076119 9.31282587 1.07794425 9.42478586 -3 9 C-4.875 7.625 -4.875 7.625 -6 6 C-6 5.34 -6 4.68 -6 4 C-5.01 4 -4.02 4 -3 4 C-2.67 4.66 -2.34 5.32 -2 6 C-0.35 5.67 1.3 5.34 3 5 C3.22609337 2.87635519 3.22609337 2.87635519 1.5 1.375 C1.005 0.92125 0.51 0.4675 0 0 Z " fill="#E8E8E8" transform="translate(752,1042)"/>
<path d="M0 0 C1.65 0 3.3 0 5 0 C5 2.97 5 5.94 5 9 C4.34 9 3.68 9 3 9 C2.67 9.66 2.34 10.32 2 11 C2 10.34 2 9.68 2 9 C1.34 9 0.68 9 0 9 C0 6.03 0 3.06 0 0 Z " fill="#151515" transform="translate(764,1040)"/>
<path d="M0 0 C2.625 0.3125 2.625 0.3125 4.4375 2.3125 C4.829375 2.9725 5.22125 3.6325 5.625 4.3125 C3.21954362 5.51522819 1.67503047 5.41321472 -1 5.375 C-2.22589844 5.36146484 -2.22589844 5.36146484 -3.4765625 5.34765625 C-4.41628906 5.33025391 -4.41628906 5.33025391 -5.375 5.3125 C-2.99512693 0.39409565 -2.99512693 0.39409565 0 0 Z " fill="#8F8F8F" transform="translate(696.375,1037.6875)"/>
<path d="M0 0 C-0.66 1.32 -1.32 2.64 -2 4 C-3.65 3.67 -5.3 3.34 -7 3 C-7 2.34 -7 1.68 -7 1 C-8.32 1.33 -9.64 1.66 -11 2 C-11 1.34 -11 0.68 -11 0 C-7.07632508 -2.82504594 -4.32061114 -1.49559616 0 0 Z " fill="#1E1E1E" transform="translate(756,1045)"/>
<path d="M0 0 C0.66 0 1.32 0 2 0 C1.34 1.32 0.68 2.64 0 4 C-0.66 4 -1.32 4 -2 4 C-2 5.65 -2 7.3 -2 9 C-2.66 9 -3.32 9 -4 9 C-4.33 10.32 -4.66 11.64 -5 13 C-5.33 12.01 -5.66 11.02 -6 10 C-6.66 10 -7.32 10 -8 10 C-7.34 8.68 -6.68 7.36 -6 6 C-5.34 6 -4.68 6 -4 6 C-3.71125 5.38125 -3.4225 4.7625 -3.125 4.125 C-2 2 -2 2 0 0 Z " fill="#F9EFE5" transform="translate(274,393)"/>
<path d="M0 0 C1.32 0 2.64 0 4 0 C4.33 2.97 4.66 5.94 5 9 C3.35 9 1.7 9 0 9 C0 6.03 0 3.06 0 0 Z " fill="#0E0E0E" transform="translate(721,1040)"/>
<path d="M0 0 C0.66 0 1.32 0 2 0 C3.32229189 2.64458379 3.09677194 4.67761301 3.0625 7.625 C3.05347656 8.62789062 3.04445313 9.63078125 3.03515625 10.6640625 C3.02355469 11.43492188 3.01195312 12.20578125 3 13 C2.01 13 1.02 13 0 13 C0 8.71 0 4.42 0 0 Z " fill="#D4D4D4" transform="translate(838,1038)"/>
<path d="M0 0 C2.625 0.375 2.625 0.375 5 1 C5 2.32 5 3.64 5 5 C3.35 5.33 1.7 5.66 0 6 C-0.66 4.68 -1.32 3.36 -2 2 C-1.34 1.34 -0.68 0.68 0 0 Z " fill="#181818" transform="translate(922,1043)"/>
<path d="M0 0 C2.625 0.375 2.625 0.375 5 1 C5 2.32 5 3.64 5 5 C3.35 5.33 1.7 5.66 0 6 C-0.66 4.68 -1.32 3.36 -2 2 C-1.34 1.34 -0.68 0.68 0 0 Z " fill="#181818" transform="translate(894,1043)"/>
<path d="M0 0 C0.78375 0.04125 1.5675 0.0825 2.375 0.125 C1.715 0.516875 1.055 0.90875 0.375 1.3125 C-1.91666667 2.97916667 -1.91666667 2.97916667 -1.875 5.8125 C-1.7925 6.575625 -1.71 7.33875 -1.625 8.125 C-0.305 8.785 1.015 9.445 2.375 10.125 C2.375 10.785 2.375 11.445 2.375 12.125 C-2.375 11.375 -2.375 11.375 -4.625 9.125 C-4.875 5.625 -4.875 5.625 -4.625 2.125 C-2.625 0.125 -2.625 0.125 0 0 Z " fill="#F0F0F0" transform="translate(729.625,1038.875)"/>
<path d="M0 0 C0.33 0 0.66 0 1 0 C0.6875 3.375 0.6875 3.375 0 7 C-3.23253796 9.15502531 -4.25150923 9.46856135 -8 9 C-9.8125 7.625 -9.8125 7.625 -11 6 C-11 5.34 -11 4.68 -11 4 C-10.13375 4.495 -10.13375 4.495 -9.25 5 C-6.80116138 6.27075898 -6.80116138 6.27075898 -3 6 C-2.690625 5.38125 -2.38125 4.7625 -2.0625 4.125 C-1.375 2.75 -0.6875 1.375 0 0 Z " fill="#D2D2D2" transform="translate(970,1042)"/>
<path d="M0 0 C0.33 0 0.66 0 1 0 C0.6875 3.375 0.6875 3.375 0 7 C-3.23253796 9.15502531 -4.25150923 9.46856135 -8 9 C-9.8125 7.625 -9.8125 7.625 -11 6 C-11 5.34 -11 4.68 -11 4 C-10.13375 4.495 -10.13375 4.495 -9.25 5 C-6.80116138 6.27075898 -6.80116138 6.27075898 -3 6 C-2.690625 5.38125 -2.38125 4.7625 -2.0625 4.125 C-1.375 2.75 -0.6875 1.375 0 0 Z " fill="#D1D1D1" transform="translate(943,1042)"/>
<path d="M0 0 C0.33 0 0.66 0 1 0 C0.6875 3.375 0.6875 3.375 0 7 C-3.23253796 9.15502531 -4.25150923 9.46856135 -8 9 C-9.8125 7.625 -9.8125 7.625 -11 6 C-11 5.34 -11 4.68 -11 4 C-10.13375 4.495 -10.13375 4.495 -9.25 5 C-6.80116138 6.27075898 -6.80116138 6.27075898 -3 6 C-2.690625 5.38125 -2.38125 4.7625 -2.0625 4.125 C-1.375 2.75 -0.6875 1.375 0 0 Z " fill="#D1D1D1" transform="translate(879,1042)"/>
<path d="M0 0 C0.99 0.33 1.98 0.66 3 1 C2.34 1.66 1.68 2.32 1 3 C0.83312552 5.58354218 0.83312552 5.58354218 1 8 C2.32 8.66 3.64 9.32 5 10 C5 10.66 5 11.32 5 12 C0.25 11.25 0.25 11.25 -2 9 C-2.25 5.5 -2.25 5.5 -2 2 C-1.34 1.34 -0.68 0.68 0 0 Z " fill="#F1F1F1" transform="translate(770,1039)"/>
<path d="M0 0 C0.66 0 1.32 0 2 0 C2 1.32 2 2.64 2 4 C-0.97 4.66 -3.94 5.32 -7 6 C-7.66 4.68 -8.32 3.36 -9 2 C-6.03 2 -3.06 2 0 2 C0 1.34 0 0.68 0 0 Z " fill="#171717" transform="translate(702,1043)"/>
<path d="M0 0 C0.99 0.33 1.98 0.66 3 1 C2.34 1.66 1.68 2.32 1 3 C0.83312552 5.58354218 0.83312552 5.58354218 1 8 C2.32 8.66 3.64 9.32 5 10 C5 10.66 5 11.32 5 12 C0.25 11.25 0.25 11.25 -2 9 C-2.25 5.5 -2.25 5.5 -2 2 C-1.34 1.34 -0.68 0.68 0 0 Z " fill="#F0F0F0" transform="translate(827,1039)"/>
<path d="M0 0 C0.99 0.33 1.98 0.66 3 1 C1.68 4.63 0.36 8.26 -1 12 C-1.99 12 -2.98 12 -4 12 C-3.52309796 10.37433394 -3.04340334 8.74948689 -2.5625 7.125 C-2.29566406 6.22007813 -2.02882813 5.31515625 -1.75390625 4.3828125 C-1 2 -1 2 0 0 Z " fill="#DEDEDE" transform="translate(688,1034)"/>
<path d="M0 0 C2.31 0.33 4.62 0.66 7 1 C7.33 1.99 7.66 2.98 8 4 C4.7 4 1.4 4 -2 4 C-1.34 2.68 -0.68 1.36 0 0 Z " fill="#0C0C0C" transform="translate(54,1036)"/>
<path d="M0 0 C2.5 1.3125 2.5 1.3125 5 3 C5 6 5 6 3.625 7.6875 C2 9 2 9 0 9 C0 6.03 0 3.06 0 0 Z " fill="#635B55" transform="translate(344,425)"/>
<path d="M0 0 C1 3 1 3 0 6 C-0.66 6 -1.32 6 -2 6 C-2 6.99 -2 7.98 -2 9 C-2.99 9.33 -3.98 9.66 -5 10 C-5 9.34 -5 8.68 -5 8 C-5.66 7.67 -6.32 7.34 -7 7 C-4.66666667 4.66666667 -2.33333333 2.33333333 0 0 Z " fill="#D2A074" transform="translate(616,715)"/>
<path d="M0 0 C1 3 1 3 0 6 C-0.66 6 -1.32 6 -2 6 C-2 6.99 -2 7.98 -2 9 C-2.99 9.33 -3.98 9.66 -5 10 C-5 9.34 -5 8.68 -5 8 C-5.66 7.67 -6.32 7.34 -7 7 C-4.66666667 4.66666667 -2.33333333 2.33333333 0 0 Z " fill="#D2A074" transform="translate(624,707)"/>
<path d="M0 0 C1 3 1 3 0 6 C-0.66 6 -1.32 6 -2 6 C-2 6.99 -2 7.98 -2 9 C-2.99 9.33 -3.98 9.66 -5 10 C-5 9.34 -5 8.68 -5 8 C-5.66 7.67 -6.32 7.34 -7 7 C-4.66666667 4.66666667 -2.33333333 2.33333333 0 0 Z " fill="#D2A074" transform="translate(632,699)"/>
<path d="M0 0 C1 3 1 3 0 6 C-0.66 6 -1.32 6 -2 6 C-2 6.99 -2 7.98 -2 9 C-2.99 9.33 -3.98 9.66 -5 10 C-5 9.34 -5 8.68 -5 8 C-5.66 7.67 -6.32 7.34 -7 7 C-4.66666667 4.66666667 -2.33333333 2.33333333 0 0 Z " fill="#D2A074" transform="translate(640,691)"/>
<path d="M0 0 C1 3 1 3 0 6 C-0.66 6 -1.32 6 -2 6 C-2 6.99 -2 7.98 -2 9 C-2.99 9.33 -3.98 9.66 -5 10 C-5 9.34 -5 8.68 -5 8 C-5.66 7.67 -6.32 7.34 -7 7 C-4.66666667 4.66666667 -2.33333333 2.33333333 0 0 Z " fill="#D2A074" transform="translate(648,683)"/>
<path d="M0 0 C1 3 1 3 0 6 C-0.66 6 -1.32 6 -2 6 C-2 6.99 -2 7.98 -2 9 C-2.99 9.33 -3.98 9.66 -5 10 C-5 9.34 -5 8.68 -5 8 C-5.66 7.67 -6.32 7.34 -7 7 C-4.66666667 4.66666667 -2.33333333 2.33333333 0 0 Z " fill="#D2A074" transform="translate(656,675)"/>
<path d="M0 0 C1 3 1 3 0 6 C-0.66 6 -1.32 6 -2 6 C-2 6.99 -2 7.98 -2 9 C-2.99 9.33 -3.98 9.66 -5 10 C-5 9.34 -5 8.68 -5 8 C-5.66 7.67 -6.32 7.34 -7 7 C-4.66666667 4.66666667 -2.33333333 2.33333333 0 0 Z " fill="#D2A074" transform="translate(664,667)"/>
<path d="M0 0 C1 3 1 3 0 6 C-0.66 6 -1.32 6 -2 6 C-2 6.99 -2 7.98 -2 9 C-2.99 9.33 -3.98 9.66 -5 10 C-5 9.34 -5 8.68 -5 8 C-5.66 7.67 -6.32 7.34 -7 7 C-4.66666667 4.66666667 -2.33333333 2.33333333 0 0 Z " fill="#D2A074" transform="translate(672,659)"/>
<path d="M0 0 C1 3 1 3 0 6 C-0.66 6 -1.32 6 -2 6 C-2 6.99 -2 7.98 -2 9 C-2.99 9.33 -3.98 9.66 -5 10 C-5 9.34 -5 8.68 -5 8 C-5.66 7.67 -6.32 7.34 -7 7 C-4.66666667 4.66666667 -2.33333333 2.33333333 0 0 Z " fill="#D2A074" transform="translate(680,651)"/>
<path d="M0 0 C1 3 1 3 0 6 C-0.66 6 -1.32 6 -2 6 C-2 6.99 -2 7.98 -2 9 C-2.99 9.33 -3.98 9.66 -5 10 C-5 9.34 -5 8.68 -5 8 C-5.66 7.67 -6.32 7.34 -7 7 C-4.66666667 4.66666667 -2.33333333 2.33333333 0 0 Z " fill="#D2A074" transform="translate(688,643)"/>
<path d="M0 0 C1 3 1 3 0 6 C-0.66 6 -1.32 6 -2 6 C-2 6.99 -2 7.98 -2 9 C-2.99 9.33 -3.98 9.66 -5 10 C-5 9.34 -5 8.68 -5 8 C-5.66 7.67 -6.32 7.34 -7 7 C-4.66666667 4.66666667 -2.33333333 2.33333333 0 0 Z " fill="#D2A074" transform="translate(696,635)"/>
<path d="M0 0 C1 3 1 3 0 6 C-0.66 6 -1.32 6 -2 6 C-2 6.99 -2 7.98 -2 9 C-2.99 9.33 -3.98 9.66 -5 10 C-5 9.34 -5 8.68 -5 8 C-5.66 7.67 -6.32 7.34 -7 7 C-4.66666667 4.66666667 -2.33333333 2.33333333 0 0 Z " fill="#D2A074" transform="translate(704,627)"/>
<path d="M0 0 C1 3 1 3 0 6 C-0.66 6 -1.32 6 -2 6 C-2 6.99 -2 7.98 -2 9 C-2.99 9.33 -3.98 9.66 -5 10 C-5 9.34 -5 8.68 -5 8 C-5.66 7.67 -6.32 7.34 -7 7 C-4.66666667 4.66666667 -2.33333333 2.33333333 0 0 Z " fill="#D2A074" transform="translate(712,619)"/>
<path d="M0 0 C1 3 1 3 0 6 C-0.66 6 -1.32 6 -2 6 C-2 6.99 -2 7.98 -2 9 C-2.99 9.33 -3.98 9.66 -5 10 C-5 9.34 -5 8.68 -5 8 C-5.66 7.67 -6.32 7.34 -7 7 C-4.66666667 4.66666667 -2.33333333 2.33333333 0 0 Z " fill="#D2A074" transform="translate(720,611)"/>
<path d="M0 0 C1 3 1 3 0 6 C-0.66 6 -1.32 6 -2 6 C-2 6.99 -2 7.98 -2 9 C-2.99 9.33 -3.98 9.66 -5 10 C-5 9.34 -5 8.68 -5 8 C-5.66 7.67 -6.32 7.34 -7 7 C-4.66666667 4.66666667 -2.33333333 2.33333333 0 0 Z " fill="#D2A074" transform="translate(728,603)"/>
<path d="M0 0 C1.65 1.65 3.3 3.3 5 5 C2 7 2 7 -1 7 C-1.66 6.67 -2.32 6.34 -3 6 C-2.42655063 3.13275314 -2.1385485 2.1385485 0 0 Z " fill="#5F5751" transform="translate(709,400)"/>
<path d="M0 0 C1.65 1.65 3.3 3.3 5 5 C2 7 2 7 -1 7 C-1.66 6.67 -2.32 6.34 -3 6 C-2.42655063 3.13275314 -2.1385485 2.1385485 0 0 Z " fill="#5F5751" transform="translate(701,392)"/>
<path d="M0 0 C1.65 1.65 3.3 3.3 5 5 C2 7 2 7 -1 7 C-1.66 6.67 -2.32 6.34 -3 6 C-2.42655063 3.13275314 -2.1385485 2.1385485 0 0 Z " fill="#5F5751" transform="translate(693,384)"/>
<path d="M0 0 C1.65 1.65 3.3 3.3 5 5 C2 7 2 7 -1 7 C-1.66 6.67 -2.32 6.34 -3 6 C-2.42655063 3.13275314 -2.1385485 2.1385485 0 0 Z " fill="#5F5751" transform="translate(685,376)"/>
<path d="M0 0 C1.65 1.65 3.3 3.3 5 5 C2 7 2 7 -1 7 C-1.66 6.67 -2.32 6.34 -3 6 C-2.42655063 3.13275314 -2.1385485 2.1385485 0 0 Z " fill="#5F5751" transform="translate(677,368)"/>
<path d="M0 0 C1.65 1.65 3.3 3.3 5 5 C2 7 2 7 -1 7 C-1.66 6.67 -2.32 6.34 -3 6 C-2.42655063 3.13275314 -2.1385485 2.1385485 0 0 Z " fill="#5F5751" transform="translate(669,360)"/>
<path d="M0 0 C1.65 1.65 3.3 3.3 5 5 C2 7 2 7 -1 7 C-1.66 6.67 -2.32 6.34 -3 6 C-2.42655063 3.13275314 -2.1385485 2.1385485 0 0 Z " fill="#5F5751" transform="translate(661,352)"/>
<path d="M0 0 C1.65 1.65 3.3 3.3 5 5 C2 7 2 7 -1 7 C-1.66 6.67 -2.32 6.34 -3 6 C-2.42655063 3.13275314 -2.1385485 2.1385485 0 0 Z " fill="#5F5751" transform="translate(653,344)"/>
<path d="M0 0 C1.65 1.65 3.3 3.3 5 5 C2 7 2 7 -1 7 C-1.66 6.67 -2.32 6.34 -3 6 C-2.42655063 3.13275314 -2.1385485 2.1385485 0 0 Z " fill="#5F5751" transform="translate(645,336)"/>
<path d="M0 0 C1.65 1.65 3.3 3.3 5 5 C2 7 2 7 -1 7 C-1.66 6.67 -2.32 6.34 -3 6 C-2.42655063 3.13275314 -2.1385485 2.1385485 0 0 Z " fill="#5F5751" transform="translate(637,328)"/>
<path d="M0 0 C1.65 1.65 3.3 3.3 5 5 C2 7 2 7 -1 7 C-1.66 6.67 -2.32 6.34 -3 6 C-2.42655063 3.13275314 -2.1385485 2.1385485 0 0 Z " fill="#5F5751" transform="translate(629,320)"/>
<path d="M0 0 C1.65 1.65 3.3 3.3 5 5 C2 7 2 7 -1 7 C-1.66 6.67 -2.32 6.34 -3 6 C-2.42655063 3.13275314 -2.1385485 2.1385485 0 0 Z " fill="#5F5751" transform="translate(621,312)"/>
<path d="M0 0 C1.65 1.65 3.3 3.3 5 5 C2 7 2 7 -1 7 C-1.66 6.67 -2.32 6.34 -3 6 C-2.42655063 3.13275314 -2.1385485 2.1385485 0 0 Z " fill="#5F5751" transform="translate(613,304)"/>
<path d="M0 0 C1.65 1.65 3.3 3.3 5 5 C2 7 2 7 -1 7 C-1.66 6.67 -2.32 6.34 -3 6 C-2.42655063 3.13275314 -2.1385485 2.1385485 0 0 Z " fill="#5F5751" transform="translate(605,296)"/>
<path d="M0 0 C1.65 1.65 3.3 3.3 5 5 C2 7 2 7 -1 7 C-1.66 6.67 -2.32 6.34 -3 6 C-2.42655063 3.13275314 -2.1385485 2.1385485 0 0 Z " fill="#5F5751" transform="translate(597,288)"/>
<path d="M0 0 C3.3 0 6.6 0 10 0 C10 0.66 10 1.32 10 2 C7.36 2 4.72 2 2 2 C1.67 3.65 1.34 5.3 1 7 C0.67 7 0.34 7 0 7 C0 4.69 0 2.38 0 0 Z " fill="#FCFCFC" transform="translate(960,1034)"/>
<path d="M0 0 C1 3 1 3 0 6 C-0.66 6 -1.32 6 -2 6 C-2 6.99 -2 7.98 -2 9 C-3.65 8.67 -5.3 8.34 -7 8 C-6.02133662 6.85373678 -5.04205413 5.70800212 -4.0625 4.5625 C-3.51722656 3.92441406 -2.97195313 3.28632812 -2.41015625 2.62890625 C-1.63204305 1.73008851 -0.84063472 0.84063472 0 0 Z " fill="#D1A075" transform="translate(608,723)"/>
<path d="M0 0 C3.96 0 7.92 0 12 0 C11.67 1.32 11.34 2.64 11 4 C10.67 3.67 10.34 3.34 10 3 C8.31816052 2.76712992 6.6287584 2.58735834 4.9375 2.4375 C3.55884766 2.31181641 3.55884766 2.31181641 2.15234375 2.18359375 C1.08693359 2.09271484 1.08693359 2.09271484 0 2 C0 1.34 0 0.68 0 0 Z " fill="#F5F5F5" transform="translate(945,1034)"/>
<path d="M0 0 C3.63 0 7.26 0 11 0 C10.67 1.32 10.34 2.64 10 4 C9.34 4 8.68 4 8 4 C8 3.34 8 2.68 8 2 C5.36 2 2.72 2 0 2 C0 1.34 0 0.68 0 0 Z " fill="#F9F9F9" transform="translate(904,1034)"/>
<path d="M0 0 C1.65 0.33 3.3 0.66 5 1 C4.67 2.32 4.34 3.64 4 5 C2.35 4.67 0.7 4.34 -1 4 C-0.67 2.68 -0.34 1.36 0 0 Z " fill="#111111" transform="translate(922,1036)"/>
<path d="M0 0 C1.65 0.33 3.3 0.66 5 1 C4.67 2.32 4.34 3.64 4 5 C2.35 4.67 0.7 4.34 -1 4 C-0.67 2.68 -0.34 1.36 0 0 Z " fill="#111111" transform="translate(894,1036)"/>
<path d="M0 0 C0.66 0 1.32 0 2 0 C2 0.66 2 1.32 2 2 C3.32 1.34 4.64 0.68 6 0 C5.67 1.98 5.34 3.96 5 6 C3.68 6 2.36 6 1 6 C0.67 4.02 0.34 2.04 0 0 Z " fill="#ECECEC" transform="translate(680,1045)"/>
<path d="M0 0 C0.66 0 1.32 0 2 0 C1.67 1.32 1.34 2.64 1 4 C-1.31 4.33 -3.62 4.66 -6 5 C-6.66 4.01 -7.32 3.02 -8 2 C-7.05125 2.04125 -6.1025 2.0825 -5.125 2.125 C-1.89755144 2.34973818 -1.89755144 2.34973818 0 0 Z " fill="#E2E2E2" transform="translate(821,1046)"/>
<path d="M0 0 C2 1 2 1 3 2 C3.07271741 4.35313555 3.08370868 6.70833668 3.0625 9.0625 C3.05347656 10.35285156 3.04445313 11.64320312 3.03515625 12.97265625 C3.02355469 13.97167969 3.01195312 14.97070312 3 16 C2.67 16 2.34 16 2 16 C2 11.71 2 7.42 2 3 C0.68 3.33 -0.64 3.66 -2 4 C-1.34 2.68 -0.68 1.36 0 0 Z " fill="#A9A9A9" transform="translate(883,1035)"/>
<path d="M0 0 C0.99 0.33 1.98 0.66 3 1 C1.19873295 3.27528469 0.3633843 3.94682181 -2.5625 4.375 C-3.7690625 4.189375 -3.7690625 4.189375 -5 4 C-5.66 3.01 -6.32 2.02 -7 1 C-5.5459375 1.0309375 -5.5459375 1.0309375 -4.0625 1.0625 C-1.12534105 1.35618499 -1.12534105 1.35618499 0 0 Z " fill="#E4E4E4" transform="translate(699,1047)"/>
<path d="M0 0 C3.82946843 1.45255699 5.12050295 3.42895561 7 7 C3.74456771 6.65120368 2.98126893 5.97866739 0.75 3.4375 C-0.11625 2.2309375 -0.11625 2.2309375 -1 1 C-0.67 0.67 -0.34 0.34 0 0 Z " fill="#DEDEDE" transform="translate(798,1044)"/>
<path d="M0 0 C0.33 0 0.66 0 1 0 C0.75 3.375 0.75 3.375 0 7 C-2.0625 8.4375 -2.0625 8.4375 -4 9 C-3.29975694 5.73219907 -2.42301753 2.42301753 0 0 Z " fill="#C7C7C7" transform="translate(836,1042)"/>
<path d="M0 0 C0.33 0 0.66 0 1 0 C0.75 3.375 0.75 3.375 0 7 C-2.0625 8.4375 -2.0625 8.4375 -4 9 C-3.29975694 5.73219907 -2.42301753 2.42301753 0 0 Z " fill="#C8C8C8" transform="translate(779,1042)"/>
<path d="M0 0 C0.99 0.33 1.98 0.66 3 1 C2.01 1.66 1.02 2.32 0 3 C-0.72382467 5.05925139 -0.72382467 5.05925139 -1 7 C-1.99 6.67 -2.98 6.34 -4 6 C-4.33 6.66 -4.66 7.32 -5 8 C-5 5 -5 5 -2.5 2.3125 C-1.675 1.549375 -0.85 0.78625 0 0 Z " fill="#CC9B6D" transform="translate(395,249)"/>
<path d="M0 0 C2.31 0.33 4.62 0.66 7 1 C7.33 2.32 7.66 3.64 8 5 C5.33333333 3.66666667 2.66666667 2.33333333 0 1 C0 0.67 0 0.34 0 0 Z " fill="#DFDFDF" transform="translate(815,1038)"/>
<path d="M0 0 C0.99 0.33 1.98 0.66 3 1 C3.33 2.98 3.66 4.96 4 7 C3.01 7 2.02 7 1 7 C0.67 4.69 0.34 2.38 0 0 Z " fill="#CFCFCF" transform="translate(890,1037)"/>
<path d="M0 0 C0.66 0 1.32 0 2 0 C2.33 1.32 2.66 2.64 3 4 C1.68 4.99 0.36 5.98 -1 7 C-1.33 6.34 -1.66 5.68 -2 5 C-1.0625 2.375 -1.0625 2.375 0 0 Z " fill="#5E5651" transform="translate(597,706)"/>
<path d="M0 0 C0.66 0 1.32 0 2 0 C2.33 1.32 2.66 2.64 3 4 C1.68 4.99 0.36 5.98 -1 7 C-1.33 6.34 -1.66 5.68 -2 5 C-1.0625 2.375 -1.0625 2.375 0 0 Z " fill="#5E5651" transform="translate(605,698)"/>
<path d="M0 0 C0.66 0 1.32 0 2 0 C2.33 1.32 2.66 2.64 3 4 C1.68 4.99 0.36 5.98 -1 7 C-1.33 6.34 -1.66 5.68 -2 5 C-1.0625 2.375 -1.0625 2.375 0 0 Z " fill="#5E5651" transform="translate(613,690)"/>
<path d="M0 0 C0.66 0 1.32 0 2 0 C2.33 1.32 2.66 2.64 3 4 C1.68 4.99 0.36 5.98 -1 7 C-1.33 6.34 -1.66 5.68 -2 5 C-1.0625 2.375 -1.0625 2.375 0 0 Z " fill="#5E5651" transform="translate(621,682)"/>
<path d="M0 0 C0.66 0 1.32 0 2 0 C2.33 1.32 2.66 2.64 3 4 C1.68 4.99 0.36 5.98 -1 7 C-1.33 6.34 -1.66 5.68 -2 5 C-1.0625 2.375 -1.0625 2.375 0 0 Z " fill="#5E5651" transform="translate(629,674)"/>
<path d="M0 0 C0.66 0 1.32 0 2 0 C2.33 1.32 2.66 2.64 3 4 C1.68 4.99 0.36 5.98 -1 7 C-1.33 6.34 -1.66 5.68 -2 5 C-1.0625 2.375 -1.0625 2.375 0 0 Z " fill="#5E5651" transform="translate(637,666)"/>
<path d="M0 0 C0.66 0 1.32 0 2 0 C2.33 1.32 2.66 2.64 3 4 C1.68 4.99 0.36 5.98 -1 7 C-1.33 6.34 -1.66 5.68 -2 5 C-1.0625 2.375 -1.0625 2.375 0 0 Z " fill="#5E5651" transform="translate(645,658)"/>
<path d="M0 0 C0.66 0 1.32 0 2 0 C2.33 1.32 2.66 2.64 3 4 C1.68 4.99 0.36 5.98 -1 7 C-1.33 6.34 -1.66 5.68 -2 5 C-1.0625 2.375 -1.0625 2.375 0 0 Z " fill="#5E5651" transform="translate(653,650)"/>
<path d="M0 0 C0.66 0 1.32 0 2 0 C2.33 1.32 2.66 2.64 3 4 C1.68 4.99 0.36 5.98 -1 7 C-1.33 6.34 -1.66 5.68 -2 5 C-1.0625 2.375 -1.0625 2.375 0 0 Z " fill="#5E5651" transform="translate(661,642)"/>
<path d="M0 0 C0.66 0 1.32 0 2 0 C2.33 1.32 2.66 2.64 3 4 C1.68 4.99 0.36 5.98 -1 7 C-1.33 6.34 -1.66 5.68 -2 5 C-1.0625 2.375 -1.0625 2.375 0 0 Z " fill="#5E5651" transform="translate(669,634)"/>
<path d="M0 0 C0.66 0 1.32 0 2 0 C2.33 1.32 2.66 2.64 3 4 C1.68 4.99 0.36 5.98 -1 7 C-1.33 6.34 -1.66 5.68 -2 5 C-1.0625 2.375 -1.0625 2.375 0 0 Z " fill="#5E5651" transform="translate(677,626)"/>
<path d="M0 0 C0.66 0 1.32 0 2 0 C2.33 1.32 2.66 2.64 3 4 C1.68 4.99 0.36 5.98 -1 7 C-1.33 6.34 -1.66 5.68 -2 5 C-1.0625 2.375 -1.0625 2.375 0 0 Z " fill="#5E5651" transform="translate(685,618)"/>
<path d="M0 0 C0.66 0 1.32 0 2 0 C2.33 1.32 2.66 2.64 3 4 C1.68 4.99 0.36 5.98 -1 7 C-1.33 6.34 -1.66 5.68 -2 5 C-1.0625 2.375 -1.0625 2.375 0 0 Z " fill="#5E5651" transform="translate(693,610)"/>
<path d="M0 0 C0.66 0 1.32 0 2 0 C2.33 1.32 2.66 2.64 3 4 C1.68 4.99 0.36 5.98 -1 7 C-1.33 6.34 -1.66 5.68 -2 5 C-1.0625 2.375 -1.0625 2.375 0 0 Z " fill="#5E5651" transform="translate(701,602)"/>
<path d="M0 0 C0.66 0 1.32 0 2 0 C2.33 1.32 2.66 2.64 3 4 C1.68 4.99 0.36 5.98 -1 7 C-1.33 6.34 -1.66 5.68 -2 5 C-1.0625 2.375 -1.0625 2.375 0 0 Z " fill="#5E5651" transform="translate(709,594)"/>
<path d="M0 0 C2.31 0.33 4.62 0.66 7 1 C7.33 2.32 7.66 3.64 8 5 C5.04590299 3.62845496 2.55991624 2.01136276 0 0 Z " fill="#DDDDDD" transform="translate(784,1038)"/>
<path d="M0 0 C2.31 0.33 4.62 0.66 7 1 C7.33 2.32 7.66 3.64 8 5 C5.04590299 3.62845496 2.55991624 2.01136276 0 0 Z " fill="#DDDDDD" transform="translate(707,1038)"/>
<path d="M0 0 C0.598125 0.309375 1.19625 0.61875 1.8125 0.9375 C4.08956772 2.10209704 4.08956772 2.10209704 7 3 C7 3.66 7 4.32 7 5 C4.625 4.75 4.625 4.75 2 4 C0.6875 1.9375 0.6875 1.9375 0 0 Z " fill="#EEEEEE" transform="translate(959,1046)"/>
<path d="M0 0 C0.598125 0.309375 1.19625 0.61875 1.8125 0.9375 C4.08956772 2.10209704 4.08956772 2.10209704 7 3 C7 3.66 7 4.32 7 5 C4.625 4.75 4.625 4.75 2 4 C0.6875 1.9375 0.6875 1.9375 0 0 Z " fill="#F0F0F0" transform="translate(932,1046)"/>
<path d="M0 0 C0.598125 0.309375 1.19625 0.61875 1.8125 0.9375 C4.08956772 2.10209704 4.08956772 2.10209704 7 3 C7 3.66 7 4.32 7 5 C4.625 4.75 4.625 4.75 2 4 C0.6875 1.9375 0.6875 1.9375 0 0 Z " fill="#EEEEEE" transform="translate(868,1046)"/>
<path d="M0 0 C0.33 0 0.66 0 1 0 C0.75 3.375 0.75 3.375 0 7 C-2.0625 8.4375 -2.0625 8.4375 -4 9 C-3.625 7.0625 -3.625 7.0625 -3 5 C-2.34 4.67 -1.68 4.34 -1 4 C-0.34786708 1.97536745 -0.34786708 1.97536745 0 0 Z " fill="#C7C7C7" transform="translate(736,1042)"/>
<path d="M0 0 C1.89213369 2.38573379 3.02391783 4.07175348 4 7 C1.525 6.01 1.525 6.01 -1 5 C-0.67 3.35 -0.34 1.7 0 0 Z " fill="#E4E4E4" transform="translate(891,1044)"/>
<path d="M0 0 C0.99 0.33 1.98 0.66 3 1 C2.34 2.32 1.68 3.64 1 5 C0.34 5 -0.32 5 -1 5 C-1.33 5.66 -1.66 6.32 -2 7 C-2.33 5.68 -2.66 4.36 -3 3 C-2.01 3 -1.02 3 0 3 C0 2.01 0 1.02 0 0 Z " fill="#CD9C6F" transform="translate(277,386)"/>
<path d="M0 0 C0.99 0.33 1.98 0.66 3 1 C2.34 2.32 1.68 3.64 1 5 C0.34 5 -0.32 5 -1 5 C-1.33 5.66 -1.66 6.32 -2 7 C-2.33 5.68 -2.66 4.36 -3 3 C-2.01 3 -1.02 3 0 3 C0 2.01 0 1.02 0 0 Z " fill="#CD9C6F" transform="translate(285,378)"/>
<path d="M0 0 C0.99 0.33 1.98 0.66 3 1 C2.34 2.32 1.68 3.64 1 5 C0.34 5 -0.32 5 -1 5 C-1.33 5.66 -1.66 6.32 -2 7 C-2.33 5.68 -2.66 4.36 -3 3 C-2.01 3 -1.02 3 0 3 C0 2.01 0 1.02 0 0 Z " fill="#CD9C6F" transform="translate(293,370)"/>
<path d="M0 0 C0.99 0.33 1.98 0.66 3 1 C2.34 2.32 1.68 3.64 1 5 C0.34 5 -0.32 5 -1 5 C-1.33 5.66 -1.66 6.32 -2 7 C-2.33 5.68 -2.66 4.36 -3 3 C-2.01 3 -1.02 3 0 3 C0 2.01 0 1.02 0 0 Z " fill="#CD9C6F" transform="translate(301,362)"/>
<path d="M0 0 C0.99 0.33 1.98 0.66 3 1 C2.34 2.32 1.68 3.64 1 5 C0.34 5 -0.32 5 -1 5 C-1.33 5.66 -1.66 6.32 -2 7 C-2.33 5.68 -2.66 4.36 -3 3 C-2.01 3 -1.02 3 0 3 C0 2.01 0 1.02 0 0 Z " fill="#CD9C6F" transform="translate(309,354)"/>
<path d="M0 0 C0.99 0.33 1.98 0.66 3 1 C2.34 2.32 1.68 3.64 1 5 C0.34 5 -0.32 5 -1 5 C-1.33 5.66 -1.66 6.32 -2 7 C-2.33 5.68 -2.66 4.36 -3 3 C-2.01 3 -1.02 3 0 3 C0 2.01 0 1.02 0 0 Z " fill="#CD9C6F" transform="translate(317,346)"/>
<path d="M0 0 C0.99 0.33 1.98 0.66 3 1 C2.34 2.32 1.68 3.64 1 5 C0.34 5 -0.32 5 -1 5 C-1.33 5.66 -1.66 6.32 -2 7 C-2.33 5.68 -2.66 4.36 -3 3 C-2.01 3 -1.02 3 0 3 C0 2.01 0 1.02 0 0 Z " fill="#CD9C6F" transform="translate(325,338)"/>
<path d="M0 0 C0.99 0.33 1.98 0.66 3 1 C2.34 2.32 1.68 3.64 1 5 C0.34 5 -0.32 5 -1 5 C-1.33 5.66 -1.66 6.32 -2 7 C-2.33 5.68 -2.66 4.36 -3 3 C-2.01 3 -1.02 3 0 3 C0 2.01 0 1.02 0 0 Z " fill="#CD9C6F" transform="translate(333,330)"/>
<path d="M0 0 C0.99 0.33 1.98 0.66 3 1 C2.34 2.32 1.68 3.64 1 5 C0.34 5 -0.32 5 -1 5 C-1.33 5.66 -1.66 6.32 -2 7 C-2.33 5.68 -2.66 4.36 -3 3 C-2.01 3 -1.02 3 0 3 C0 2.01 0 1.02 0 0 Z " fill="#CD9C6F" transform="translate(341,322)"/>
<path d="M0 0 C0.99 0.33 1.98 0.66 3 1 C2.34 2.32 1.68 3.64 1 5 C0.34 5 -0.32 5 -1 5 C-1.33 5.66 -1.66 6.32 -2 7 C-2.33 5.68 -2.66 4.36 -3 3 C-2.01 3 -1.02 3 0 3 C0 2.01 0 1.02 0 0 Z " fill="#CD9C6F" transform="translate(349,314)"/>
<path d="M0 0 C0.99 0.33 1.98 0.66 3 1 C2.34 2.32 1.68 3.64 1 5 C0.34 5 -0.32 5 -1 5 C-1.33 5.66 -1.66 6.32 -2 7 C-2.33 5.68 -2.66 4.36 -3 3 C-2.01 3 -1.02 3 0 3 C0 2.01 0 1.02 0 0 Z " fill="#CD9C6F" transform="translate(357,306)"/>
<path d="M0 0 C0.99 0.33 1.98 0.66 3 1 C2.34 2.32 1.68 3.64 1 5 C0.34 5 -0.32 5 -1 5 C-1.33 5.66 -1.66 6.32 -2 7 C-2.33 5.68 -2.66 4.36 -3 3 C-2.01 3 -1.02 3 0 3 C0 2.01 0 1.02 0 0 Z " fill="#CD9C6F" transform="translate(365,298)"/>
<path d="M0 0 C0.99 0.33 1.98 0.66 3 1 C2.34 2.32 1.68 3.64 1 5 C0.34 5 -0.32 5 -1 5 C-1.33 5.66 -1.66 6.32 -2 7 C-2.33 5.68 -2.66 4.36 -3 3 C-2.01 3 -1.02 3 0 3 C0 2.01 0 1.02 0 0 Z " fill="#CD9C6F" transform="translate(373,290)"/>
<path d="M0 0 C0.99 0.33 1.98 0.66 3 1 C2.34 2.32 1.68 3.64 1 5 C0.34 5 -0.32 5 -1 5 C-1.33 5.66 -1.66 6.32 -2 7 C-2.33 5.68 -2.66 4.36 -3 3 C-2.01 3 -1.02 3 0 3 C0 2.01 0 1.02 0 0 Z " fill="#CD9C6F" transform="translate(381,282)"/>
<path d="M0 0 C0.99 0.33 1.98 0.66 3 1 C2.34 2.32 1.68 3.64 1 5 C0.34 5 -0.32 5 -1 5 C-1.33 5.66 -1.66 6.32 -2 7 C-2.33 5.68 -2.66 4.36 -3 3 C-2.01 3 -1.02 3 0 3 C0 2.01 0 1.02 0 0 Z " fill="#CD9C6F" transform="translate(389,274)"/>
</svg>
